<?xml version="1.0" encoding="utf-8"?>
<svg xmlns="http://www.w3.org/2000/svg" xmlns:xlink="http://www.w3.org/1999/xlink" width="600" height="400" viewBox="0 0 2400 1600">
<defs>
  <clipPath id="clip340">
    <rect x="0" y="0" width="2400" height="1600"/>
  </clipPath>
</defs>
<path clip-path="url(#clip340)" d="M0 1600 L2400 1600 L2400 0 L0 0  Z" fill="#ffffff" fill-rule="evenodd" fill-opacity="1"/>
<defs>
  <clipPath id="clip341">
    <rect x="480" y="0" width="1681" height="1600"/>
  </clipPath>
</defs>
<path clip-path="url(#clip340)" d="M158.369 1474.16 L2352.76 1474.16 L2352.76 47.2441 L158.369 47.2441  Z" fill="#ffffff" fill-rule="evenodd" fill-opacity="1"/>
<defs>
  <clipPath id="clip342">
    <rect x="158" y="47" width="2195" height="1428"/>
  </clipPath>
</defs>
<polyline clip-path="url(#clip342)" style="stroke:#000000; stroke-linecap:round; stroke-linejoin:round; stroke-width:2; stroke-opacity:0.1; fill:none" points="195.316,1474.16 195.316,47.2441 "/>
<polyline clip-path="url(#clip342)" style="stroke:#000000; stroke-linecap:round; stroke-linejoin:round; stroke-width:2; stroke-opacity:0.1; fill:none" points="644.573,1474.16 644.573,47.2441 "/>
<polyline clip-path="url(#clip342)" style="stroke:#000000; stroke-linecap:round; stroke-linejoin:round; stroke-width:2; stroke-opacity:0.1; fill:none" points="1093.83,1474.16 1093.83,47.2441 "/>
<polyline clip-path="url(#clip342)" style="stroke:#000000; stroke-linecap:round; stroke-linejoin:round; stroke-width:2; stroke-opacity:0.1; fill:none" points="1543.09,1474.16 1543.09,47.2441 "/>
<polyline clip-path="url(#clip342)" style="stroke:#000000; stroke-linecap:round; stroke-linejoin:round; stroke-width:2; stroke-opacity:0.1; fill:none" points="1992.34,1474.16 1992.34,47.2441 "/>
<polyline clip-path="url(#clip340)" style="stroke:#000000; stroke-linecap:round; stroke-linejoin:round; stroke-width:4; stroke-opacity:1; fill:none" points="158.369,1474.16 2352.76,1474.16 "/>
<polyline clip-path="url(#clip340)" style="stroke:#000000; stroke-linecap:round; stroke-linejoin:round; stroke-width:4; stroke-opacity:1; fill:none" points="195.316,1474.16 195.316,1455.27 "/>
<polyline clip-path="url(#clip340)" style="stroke:#000000; stroke-linecap:round; stroke-linejoin:round; stroke-width:4; stroke-opacity:1; fill:none" points="644.573,1474.16 644.573,1455.27 "/>
<polyline clip-path="url(#clip340)" style="stroke:#000000; stroke-linecap:round; stroke-linejoin:round; stroke-width:4; stroke-opacity:1; fill:none" points="1093.83,1474.16 1093.83,1455.27 "/>
<polyline clip-path="url(#clip340)" style="stroke:#000000; stroke-linecap:round; stroke-linejoin:round; stroke-width:4; stroke-opacity:1; fill:none" points="1543.09,1474.16 1543.09,1455.27 "/>
<polyline clip-path="url(#clip340)" style="stroke:#000000; stroke-linecap:round; stroke-linejoin:round; stroke-width:4; stroke-opacity:1; fill:none" points="1992.34,1474.16 1992.34,1455.27 "/>
<path clip-path="url(#clip340)" d="M195.316 1505.08 Q191.705 1505.08 189.876 1508.65 Q188.071 1512.19 188.071 1519.32 Q188.071 1526.43 189.876 1529.99 Q191.705 1533.53 195.316 1533.53 Q198.95 1533.53 200.756 1529.99 Q202.584 1526.43 202.584 1519.32 Q202.584 1512.19 200.756 1508.65 Q198.95 1505.08 195.316 1505.08 M195.316 1501.38 Q201.126 1501.38 204.182 1505.99 Q207.26 1510.57 207.26 1519.32 Q207.26 1528.05 204.182 1532.65 Q201.126 1537.24 195.316 1537.24 Q189.506 1537.24 186.427 1532.65 Q183.372 1528.05 183.372 1519.32 Q183.372 1510.57 186.427 1505.99 Q189.506 1501.38 195.316 1501.38 Z" fill="#000000" fill-rule="nonzero" fill-opacity="1" /><path clip-path="url(#clip340)" d="M541.624 1548.29 L557.943 1548.29 L557.943 1552.22 L535.999 1552.22 L535.999 1548.29 Q538.661 1545.53 543.244 1540.91 Q547.85 1536.25 549.031 1534.91 Q551.276 1532.39 552.156 1530.65 Q553.059 1528.89 553.059 1527.2 Q553.059 1524.45 551.114 1522.71 Q549.193 1520.97 546.091 1520.97 Q543.892 1520.97 541.438 1521.74 Q539.008 1522.5 536.23 1524.05 L536.23 1519.33 Q539.054 1518.2 541.508 1517.62 Q543.962 1517.04 545.999 1517.04 Q551.369 1517.04 554.563 1519.72 Q557.758 1522.41 557.758 1526.9 Q557.758 1529.03 556.948 1530.95 Q556.161 1532.85 554.054 1535.44 Q553.475 1536.11 550.374 1539.33 Q547.272 1542.53 541.624 1548.29 Z" fill="#000000" fill-rule="nonzero" fill-opacity="1" /><path clip-path="url(#clip340)" d="M567.758 1546.35 L572.642 1546.35 L572.642 1552.22 L567.758 1552.22 L567.758 1546.35 Z" fill="#000000" fill-rule="nonzero" fill-opacity="1" /><path clip-path="url(#clip340)" d="M582.873 1517.66 L601.23 1517.66 L601.23 1521.6 L587.156 1521.6 L587.156 1530.07 Q588.174 1529.72 589.193 1529.56 Q590.211 1529.38 591.23 1529.38 Q597.017 1529.38 600.396 1532.55 Q603.776 1535.72 603.776 1541.14 Q603.776 1546.72 600.304 1549.82 Q596.832 1552.9 590.512 1552.9 Q588.336 1552.9 586.068 1552.53 Q583.822 1552.16 581.415 1551.41 L581.415 1546.72 Q583.498 1547.85 585.721 1548.41 Q587.943 1548.96 590.42 1548.96 Q594.424 1548.96 596.762 1546.85 Q599.1 1544.75 599.1 1541.14 Q599.1 1537.53 596.762 1535.42 Q594.424 1533.31 590.42 1533.31 Q588.545 1533.31 586.67 1533.73 Q584.818 1534.15 582.873 1535.03 L582.873 1517.66 Z" fill="#000000" fill-rule="nonzero" fill-opacity="1" /><path clip-path="url(#clip340)" d="M622.989 1520.74 Q619.378 1520.74 617.549 1524.31 Q615.744 1527.85 615.744 1534.98 Q615.744 1542.09 617.549 1545.65 Q619.378 1549.19 622.989 1549.19 Q626.623 1549.19 628.429 1545.65 Q630.257 1542.09 630.257 1534.98 Q630.257 1527.85 628.429 1524.31 Q626.623 1520.74 622.989 1520.74 M622.989 1517.04 Q628.799 1517.04 631.855 1521.65 Q634.933 1526.23 634.933 1534.98 Q634.933 1543.71 631.855 1548.31 Q628.799 1552.9 622.989 1552.9 Q617.179 1552.9 614.1 1548.31 Q611.044 1543.71 611.044 1534.98 Q611.044 1526.23 614.1 1521.65 Q617.179 1517.04 622.989 1517.04 Z" fill="#000000" fill-rule="nonzero" fill-opacity="1" /><path clip-path="url(#clip340)" d="M671.322 1526.76 L660.743 1537.39 L671.322 1547.97 L668.567 1550.77 L657.942 1540.14 L647.317 1550.77 L644.586 1547.97 L655.141 1537.39 L644.586 1526.76 L647.317 1523.96 L657.942 1534.59 L668.567 1523.96 L671.322 1526.76 Z" fill="#000000" fill-rule="nonzero" fill-opacity="1" /><path clip-path="url(#clip340)" d="M683.683 1548.29 L691.322 1548.29 L691.322 1521.92 L683.012 1523.59 L683.012 1519.33 L691.276 1517.66 L695.951 1517.66 L695.951 1548.29 L703.59 1548.29 L703.59 1552.22 L683.683 1552.22 L683.683 1548.29 Z" fill="#000000" fill-rule="nonzero" fill-opacity="1" /><path clip-path="url(#clip340)" d="M723.035 1520.74 Q719.424 1520.74 717.595 1524.31 Q715.789 1527.85 715.789 1534.98 Q715.789 1542.09 717.595 1545.65 Q719.424 1549.19 723.035 1549.19 Q726.669 1549.19 728.474 1545.65 Q730.303 1542.09 730.303 1534.98 Q730.303 1527.85 728.474 1524.31 Q726.669 1520.74 723.035 1520.74 M723.035 1517.04 Q728.845 1517.04 731.9 1521.65 Q734.979 1526.23 734.979 1534.98 Q734.979 1543.71 731.9 1548.31 Q728.845 1552.9 723.035 1552.9 Q717.224 1552.9 714.146 1548.31 Q711.09 1543.71 711.09 1534.98 Q711.09 1526.23 714.146 1521.65 Q717.224 1517.04 723.035 1517.04 Z" fill="#000000" fill-rule="nonzero" fill-opacity="1" /><path clip-path="url(#clip340)" d="M736.164 1496.73 L751.078 1496.73 L751.078 1499.93 L739.643 1499.93 L739.643 1506.82 Q740.471 1506.53 741.298 1506.4 Q742.126 1506.25 742.954 1506.25 Q747.655 1506.25 750.401 1508.83 Q753.147 1511.4 753.147 1515.81 Q753.147 1520.34 750.326 1522.86 Q747.505 1525.36 742.37 1525.36 Q740.603 1525.36 738.759 1525.06 Q736.935 1524.76 734.979 1524.16 L734.979 1520.34 Q736.672 1521.26 738.477 1521.71 Q740.283 1522.16 742.295 1522.16 Q745.549 1522.16 747.449 1520.45 Q749.348 1518.74 749.348 1515.81 Q749.348 1512.87 747.449 1511.16 Q745.549 1509.45 742.295 1509.45 Q740.772 1509.45 739.248 1509.79 Q737.744 1510.13 736.164 1510.84 L736.164 1496.73 Z" fill="#000000" fill-rule="nonzero" fill-opacity="1" /><path clip-path="url(#clip340)" d="M986.807 1517.66 L1005.16 1517.66 L1005.16 1521.6 L991.089 1521.6 L991.089 1530.07 Q992.107 1529.72 993.126 1529.56 Q994.144 1529.38 995.163 1529.38 Q1000.95 1529.38 1004.33 1532.55 Q1007.71 1535.72 1007.71 1541.14 Q1007.71 1546.72 1004.24 1549.82 Q1000.76 1552.9 994.445 1552.9 Q992.269 1552.9 990.001 1552.53 Q987.756 1552.16 985.348 1551.41 L985.348 1546.72 Q987.432 1547.85 989.654 1548.41 Q991.876 1548.96 994.353 1548.96 Q998.357 1548.96 1000.7 1546.85 Q1003.03 1544.75 1003.03 1541.14 Q1003.03 1537.53 1000.7 1535.42 Q998.357 1533.31 994.353 1533.31 Q992.478 1533.31 990.603 1533.73 Q988.751 1534.15 986.807 1535.03 L986.807 1517.66 Z" fill="#000000" fill-rule="nonzero" fill-opacity="1" /><path clip-path="url(#clip340)" d="M1016.92 1546.35 L1021.81 1546.35 L1021.81 1552.22 L1016.92 1552.22 L1016.92 1546.35 Z" fill="#000000" fill-rule="nonzero" fill-opacity="1" /><path clip-path="url(#clip340)" d="M1041.99 1520.74 Q1038.38 1520.74 1036.55 1524.31 Q1034.75 1527.85 1034.75 1534.98 Q1034.75 1542.09 1036.55 1545.65 Q1038.38 1549.19 1041.99 1549.19 Q1045.63 1549.19 1047.43 1545.65 Q1049.26 1542.09 1049.26 1534.98 Q1049.26 1527.85 1047.43 1524.31 Q1045.63 1520.74 1041.99 1520.74 M1041.99 1517.04 Q1047.8 1517.04 1050.86 1521.65 Q1053.94 1526.23 1053.94 1534.98 Q1053.94 1543.71 1050.86 1548.31 Q1047.8 1552.9 1041.99 1552.9 Q1036.18 1552.9 1033.1 1548.31 Q1030.05 1543.71 1030.05 1534.98 Q1030.05 1526.23 1033.1 1521.65 Q1036.18 1517.04 1041.99 1517.04 Z" fill="#000000" fill-rule="nonzero" fill-opacity="1" /><path clip-path="url(#clip340)" d="M1072.15 1520.74 Q1068.54 1520.74 1066.71 1524.31 Q1064.91 1527.85 1064.91 1534.98 Q1064.91 1542.09 1066.71 1545.65 Q1068.54 1549.19 1072.15 1549.19 Q1075.79 1549.19 1077.59 1545.65 Q1079.42 1542.09 1079.42 1534.98 Q1079.42 1527.85 1077.59 1524.31 Q1075.79 1520.74 1072.15 1520.74 M1072.15 1517.04 Q1077.96 1517.04 1081.02 1521.65 Q1084.1 1526.23 1084.1 1534.98 Q1084.1 1543.71 1081.02 1548.31 Q1077.96 1552.9 1072.15 1552.9 Q1066.34 1552.9 1063.26 1548.31 Q1060.21 1543.71 1060.21 1534.98 Q1060.21 1526.23 1063.26 1521.65 Q1066.34 1517.04 1072.15 1517.04 Z" fill="#000000" fill-rule="nonzero" fill-opacity="1" /><path clip-path="url(#clip340)" d="M1120.49 1526.76 L1109.91 1537.39 L1120.49 1547.97 L1117.73 1550.77 L1107.11 1540.14 L1096.48 1550.77 L1093.75 1547.97 L1104.31 1537.39 L1093.75 1526.76 L1096.48 1523.96 L1107.11 1534.59 L1117.73 1523.96 L1120.49 1526.76 Z" fill="#000000" fill-rule="nonzero" fill-opacity="1" /><path clip-path="url(#clip340)" d="M1132.85 1548.29 L1140.49 1548.29 L1140.49 1521.92 L1132.18 1523.59 L1132.18 1519.33 L1140.44 1517.66 L1145.12 1517.66 L1145.12 1548.29 L1152.75 1548.29 L1152.75 1552.22 L1132.85 1552.22 L1132.85 1548.29 Z" fill="#000000" fill-rule="nonzero" fill-opacity="1" /><path clip-path="url(#clip340)" d="M1172.2 1520.74 Q1168.59 1520.74 1166.76 1524.31 Q1164.95 1527.85 1164.95 1534.98 Q1164.95 1542.09 1166.76 1545.65 Q1168.59 1549.19 1172.2 1549.19 Q1175.83 1549.19 1177.64 1545.65 Q1179.47 1542.09 1179.47 1534.98 Q1179.47 1527.85 1177.64 1524.31 Q1175.83 1520.74 1172.2 1520.74 M1172.2 1517.04 Q1178.01 1517.04 1181.06 1521.65 Q1184.14 1526.23 1184.14 1534.98 Q1184.14 1543.71 1181.06 1548.31 Q1178.01 1552.9 1172.2 1552.9 Q1166.39 1552.9 1163.31 1548.31 Q1160.25 1543.71 1160.25 1534.98 Q1160.25 1526.23 1163.31 1521.65 Q1166.39 1517.04 1172.2 1517.04 Z" fill="#000000" fill-rule="nonzero" fill-opacity="1" /><path clip-path="url(#clip340)" d="M1185.33 1496.73 L1200.24 1496.73 L1200.24 1499.93 L1188.81 1499.93 L1188.81 1506.82 Q1189.64 1506.53 1190.46 1506.4 Q1191.29 1506.25 1192.12 1506.25 Q1196.82 1506.25 1199.57 1508.83 Q1202.31 1511.4 1202.31 1515.81 Q1202.31 1520.34 1199.49 1522.86 Q1196.67 1525.36 1191.53 1525.36 Q1189.77 1525.36 1187.92 1525.06 Q1186.1 1524.76 1184.14 1524.16 L1184.14 1520.34 Q1185.84 1521.26 1187.64 1521.71 Q1189.45 1522.16 1191.46 1522.16 Q1194.71 1522.16 1196.61 1520.45 Q1198.51 1518.74 1198.51 1515.81 Q1198.51 1512.87 1196.61 1511.16 Q1194.71 1509.45 1191.46 1509.45 Q1189.94 1509.45 1188.41 1509.79 Q1186.91 1510.13 1185.33 1510.84 L1185.33 1496.73 Z" fill="#000000" fill-rule="nonzero" fill-opacity="1" /><path clip-path="url(#clip340)" d="M1434.72 1517.66 L1456.94 1517.66 L1456.94 1519.66 L1444.4 1552.22 L1439.51 1552.22 L1451.32 1521.6 L1434.72 1521.6 L1434.72 1517.66 Z" fill="#000000" fill-rule="nonzero" fill-opacity="1" /><path clip-path="url(#clip340)" d="M1466.06 1546.35 L1470.95 1546.35 L1470.95 1552.22 L1466.06 1552.22 L1466.06 1546.35 Z" fill="#000000" fill-rule="nonzero" fill-opacity="1" /><path clip-path="url(#clip340)" d="M1481.18 1517.66 L1499.54 1517.66 L1499.54 1521.6 L1485.46 1521.6 L1485.46 1530.07 Q1486.48 1529.72 1487.5 1529.56 Q1488.52 1529.38 1489.54 1529.38 Q1495.32 1529.38 1498.7 1532.55 Q1502.08 1535.72 1502.08 1541.14 Q1502.08 1546.72 1498.61 1549.82 Q1495.14 1552.9 1488.82 1552.9 Q1486.64 1552.9 1484.37 1552.53 Q1482.13 1552.16 1479.72 1551.41 L1479.72 1546.72 Q1481.8 1547.85 1484.03 1548.41 Q1486.25 1548.96 1488.73 1548.96 Q1492.73 1548.96 1495.07 1546.85 Q1497.41 1544.75 1497.41 1541.14 Q1497.41 1537.53 1495.07 1535.42 Q1492.73 1533.31 1488.73 1533.31 Q1486.85 1533.31 1484.98 1533.73 Q1483.12 1534.15 1481.18 1535.03 L1481.18 1517.66 Z" fill="#000000" fill-rule="nonzero" fill-opacity="1" /><path clip-path="url(#clip340)" d="M1521.29 1520.74 Q1517.68 1520.74 1515.85 1524.31 Q1514.05 1527.85 1514.05 1534.98 Q1514.05 1542.09 1515.85 1545.65 Q1517.68 1549.19 1521.29 1549.19 Q1524.93 1549.19 1526.73 1545.65 Q1528.56 1542.09 1528.56 1534.98 Q1528.56 1527.85 1526.73 1524.31 Q1524.93 1520.74 1521.29 1520.74 M1521.29 1517.04 Q1527.1 1517.04 1530.16 1521.65 Q1533.24 1526.23 1533.24 1534.98 Q1533.24 1543.71 1530.16 1548.31 Q1527.1 1552.9 1521.29 1552.9 Q1515.48 1552.9 1512.41 1548.31 Q1509.35 1543.71 1509.35 1534.98 Q1509.35 1526.23 1512.41 1521.65 Q1515.48 1517.04 1521.29 1517.04 Z" fill="#000000" fill-rule="nonzero" fill-opacity="1" /><path clip-path="url(#clip340)" d="M1569.63 1526.76 L1559.05 1537.39 L1569.63 1547.97 L1566.87 1550.77 L1556.25 1540.14 L1545.62 1550.77 L1542.89 1547.97 L1553.45 1537.39 L1542.89 1526.76 L1545.62 1523.96 L1556.25 1534.59 L1566.87 1523.96 L1569.63 1526.76 Z" fill="#000000" fill-rule="nonzero" fill-opacity="1" /><path clip-path="url(#clip340)" d="M1581.99 1548.29 L1589.63 1548.29 L1589.63 1521.92 L1581.32 1523.59 L1581.32 1519.33 L1589.58 1517.66 L1594.26 1517.66 L1594.26 1548.29 L1601.9 1548.29 L1601.9 1552.22 L1581.99 1552.22 L1581.99 1548.29 Z" fill="#000000" fill-rule="nonzero" fill-opacity="1" /><path clip-path="url(#clip340)" d="M1621.34 1520.74 Q1617.73 1520.74 1615.9 1524.31 Q1614.09 1527.85 1614.09 1534.98 Q1614.09 1542.09 1615.9 1545.65 Q1617.73 1549.19 1621.34 1549.19 Q1624.97 1549.19 1626.78 1545.65 Q1628.61 1542.09 1628.61 1534.98 Q1628.61 1527.85 1626.78 1524.31 Q1624.97 1520.74 1621.34 1520.74 M1621.34 1517.04 Q1627.15 1517.04 1630.21 1521.65 Q1633.28 1526.23 1633.28 1534.98 Q1633.28 1543.71 1630.21 1548.31 Q1627.15 1552.9 1621.34 1552.9 Q1615.53 1552.9 1612.45 1548.31 Q1609.4 1543.71 1609.4 1534.98 Q1609.4 1526.23 1612.45 1521.65 Q1615.53 1517.04 1621.34 1517.04 Z" fill="#000000" fill-rule="nonzero" fill-opacity="1" /><path clip-path="url(#clip340)" d="M1634.47 1496.73 L1649.38 1496.73 L1649.38 1499.93 L1637.95 1499.93 L1637.95 1506.82 Q1638.78 1506.53 1639.6 1506.4 Q1640.43 1506.25 1641.26 1506.25 Q1645.96 1506.25 1648.71 1508.83 Q1651.45 1511.4 1651.45 1515.81 Q1651.45 1520.34 1648.63 1522.86 Q1645.81 1525.36 1640.68 1525.36 Q1638.91 1525.36 1637.07 1525.06 Q1635.24 1524.76 1633.28 1524.16 L1633.28 1520.34 Q1634.98 1521.26 1636.78 1521.71 Q1638.59 1522.16 1640.6 1522.16 Q1643.85 1522.16 1645.75 1520.45 Q1647.65 1518.74 1647.65 1515.81 Q1647.65 1512.87 1645.75 1511.16 Q1643.85 1509.45 1640.6 1509.45 Q1639.08 1509.45 1637.55 1509.79 Q1636.05 1510.13 1634.47 1510.84 L1634.47 1496.73 Z" fill="#000000" fill-rule="nonzero" fill-opacity="1" /><path clip-path="url(#clip340)" d="M1884.7 1548.29 L1892.34 1548.29 L1892.34 1521.92 L1884.03 1523.59 L1884.03 1519.33 L1892.29 1517.66 L1896.97 1517.66 L1896.97 1548.29 L1904.6 1548.29 L1904.6 1552.22 L1884.7 1552.22 L1884.7 1548.29 Z" fill="#000000" fill-rule="nonzero" fill-opacity="1" /><path clip-path="url(#clip340)" d="M1914.05 1546.35 L1918.93 1546.35 L1918.93 1552.22 L1914.05 1552.22 L1914.05 1546.35 Z" fill="#000000" fill-rule="nonzero" fill-opacity="1" /><path clip-path="url(#clip340)" d="M1939.12 1520.74 Q1935.51 1520.74 1933.68 1524.31 Q1931.87 1527.85 1931.87 1534.98 Q1931.87 1542.09 1933.68 1545.65 Q1935.51 1549.19 1939.12 1549.19 Q1942.75 1549.19 1944.56 1545.65 Q1946.39 1542.09 1946.39 1534.98 Q1946.39 1527.85 1944.56 1524.31 Q1942.75 1520.74 1939.12 1520.74 M1939.12 1517.04 Q1944.93 1517.04 1947.98 1521.65 Q1951.06 1526.23 1951.06 1534.98 Q1951.06 1543.71 1947.98 1548.31 Q1944.93 1552.9 1939.12 1552.9 Q1933.31 1552.9 1930.23 1548.31 Q1927.17 1543.71 1927.17 1534.98 Q1927.17 1526.23 1930.23 1521.65 Q1933.31 1517.04 1939.12 1517.04 Z" fill="#000000" fill-rule="nonzero" fill-opacity="1" /><path clip-path="url(#clip340)" d="M1969.28 1520.74 Q1965.67 1520.74 1963.84 1524.31 Q1962.04 1527.85 1962.04 1534.98 Q1962.04 1542.09 1963.84 1545.65 Q1965.67 1549.19 1969.28 1549.19 Q1972.91 1549.19 1974.72 1545.65 Q1976.55 1542.09 1976.55 1534.98 Q1976.55 1527.85 1974.72 1524.31 Q1972.91 1520.74 1969.28 1520.74 M1969.28 1517.04 Q1975.09 1517.04 1978.15 1521.65 Q1981.22 1526.23 1981.22 1534.98 Q1981.22 1543.71 1978.15 1548.31 Q1975.09 1552.9 1969.28 1552.9 Q1963.47 1552.9 1960.39 1548.31 Q1957.34 1543.71 1957.34 1534.98 Q1957.34 1526.23 1960.39 1521.65 Q1963.47 1517.04 1969.28 1517.04 Z" fill="#000000" fill-rule="nonzero" fill-opacity="1" /><path clip-path="url(#clip340)" d="M2017.61 1526.76 L2007.04 1537.39 L2017.61 1547.97 L2014.86 1550.77 L2004.23 1540.14 L1993.61 1550.77 L1990.88 1547.97 L2001.43 1537.39 L1990.88 1526.76 L1993.61 1523.96 L2004.23 1534.59 L2014.86 1523.96 L2017.61 1526.76 Z" fill="#000000" fill-rule="nonzero" fill-opacity="1" /><path clip-path="url(#clip340)" d="M2029.97 1548.29 L2037.61 1548.29 L2037.61 1521.92 L2029.3 1523.59 L2029.3 1519.33 L2037.57 1517.66 L2042.24 1517.66 L2042.24 1548.29 L2049.88 1548.29 L2049.88 1552.22 L2029.97 1552.22 L2029.97 1548.29 Z" fill="#000000" fill-rule="nonzero" fill-opacity="1" /><path clip-path="url(#clip340)" d="M2069.33 1520.74 Q2065.72 1520.74 2063.89 1524.31 Q2062.08 1527.85 2062.08 1534.98 Q2062.08 1542.09 2063.89 1545.65 Q2065.72 1549.19 2069.33 1549.19 Q2072.96 1549.19 2074.77 1545.65 Q2076.59 1542.09 2076.59 1534.98 Q2076.59 1527.85 2074.77 1524.31 Q2072.96 1520.74 2069.33 1520.74 M2069.33 1517.04 Q2075.14 1517.04 2078.19 1521.65 Q2081.27 1526.23 2081.27 1534.98 Q2081.27 1543.71 2078.19 1548.31 Q2075.14 1552.9 2069.33 1552.9 Q2063.52 1552.9 2060.44 1548.31 Q2057.38 1543.71 2057.38 1534.98 Q2057.38 1526.23 2060.44 1521.65 Q2063.52 1517.04 2069.33 1517.04 Z" fill="#000000" fill-rule="nonzero" fill-opacity="1" /><path clip-path="url(#clip340)" d="M2091.3 1509.26 Q2088.74 1509.26 2087.23 1511.01 Q2085.75 1512.76 2085.75 1515.81 Q2085.75 1518.83 2087.23 1520.6 Q2088.74 1522.35 2091.3 1522.35 Q2093.85 1522.35 2095.34 1520.6 Q2096.84 1518.83 2096.84 1515.81 Q2096.84 1512.76 2095.34 1511.01 Q2093.85 1509.26 2091.3 1509.26 M2098.84 1497.35 L2098.84 1500.82 Q2097.41 1500.14 2095.94 1499.78 Q2094.49 1499.42 2093.06 1499.42 Q2089.3 1499.42 2087.31 1501.96 Q2085.33 1504.5 2085.05 1509.64 Q2086.16 1508 2087.83 1507.13 Q2089.51 1506.25 2091.52 1506.25 Q2095.75 1506.25 2098.2 1508.83 Q2100.66 1511.39 2100.66 1515.81 Q2100.66 1520.13 2098.1 1522.75 Q2095.55 1525.36 2091.3 1525.36 Q2086.42 1525.36 2083.85 1521.64 Q2081.27 1517.89 2081.27 1510.8 Q2081.27 1504.14 2084.43 1500.19 Q2087.59 1496.23 2092.91 1496.23 Q2094.34 1496.23 2095.79 1496.51 Q2097.26 1496.79 2098.84 1497.35 Z" fill="#000000" fill-rule="nonzero" fill-opacity="1" /><polyline clip-path="url(#clip342)" style="stroke:#000000; stroke-linecap:round; stroke-linejoin:round; stroke-width:2; stroke-opacity:0.1; fill:none" points="158.369,1433.78 2352.76,1433.78 "/>
<polyline clip-path="url(#clip342)" style="stroke:#000000; stroke-linecap:round; stroke-linejoin:round; stroke-width:2; stroke-opacity:0.1; fill:none" points="158.369,860.059 2352.76,860.059 "/>
<polyline clip-path="url(#clip342)" style="stroke:#000000; stroke-linecap:round; stroke-linejoin:round; stroke-width:2; stroke-opacity:0.1; fill:none" points="158.369,286.339 2352.76,286.339 "/>
<polyline clip-path="url(#clip340)" style="stroke:#000000; stroke-linecap:round; stroke-linejoin:round; stroke-width:4; stroke-opacity:1; fill:none" points="158.369,1474.16 158.369,47.2441 "/>
<polyline clip-path="url(#clip340)" style="stroke:#000000; stroke-linecap:round; stroke-linejoin:round; stroke-width:4; stroke-opacity:1; fill:none" points="158.369,1433.78 177.267,1433.78 "/>
<polyline clip-path="url(#clip340)" style="stroke:#000000; stroke-linecap:round; stroke-linejoin:round; stroke-width:4; stroke-opacity:1; fill:none" points="158.369,860.059 177.267,860.059 "/>
<polyline clip-path="url(#clip340)" style="stroke:#000000; stroke-linecap:round; stroke-linejoin:round; stroke-width:4; stroke-opacity:1; fill:none" points="158.369,286.339 177.267,286.339 "/>
<path clip-path="url(#clip340)" d="M51.6634 1453.57 L59.3023 1453.57 L59.3023 1427.21 L50.9921 1428.87 L50.9921 1424.61 L59.256 1422.95 L63.9319 1422.95 L63.9319 1453.57 L71.5707 1453.57 L71.5707 1457.51 L51.6634 1457.51 L51.6634 1453.57 Z" fill="#000000" fill-rule="nonzero" fill-opacity="1" /><path clip-path="url(#clip340)" d="M91.0151 1426.03 Q87.404 1426.03 85.5753 1429.59 Q83.7697 1433.13 83.7697 1440.26 Q83.7697 1447.37 85.5753 1450.93 Q87.404 1454.48 91.0151 1454.48 Q94.6493 1454.48 96.4548 1450.93 Q98.2835 1447.37 98.2835 1440.26 Q98.2835 1433.13 96.4548 1429.59 Q94.6493 1426.03 91.0151 1426.03 M91.0151 1422.32 Q96.8252 1422.32 99.8808 1426.93 Q102.959 1431.51 102.959 1440.26 Q102.959 1448.99 99.8808 1453.6 Q96.8252 1458.18 91.0151 1458.18 Q85.2049 1458.18 82.1262 1453.6 Q79.0707 1448.99 79.0707 1440.26 Q79.0707 1431.51 82.1262 1426.93 Q85.2049 1422.32 91.0151 1422.32 Z" fill="#000000" fill-rule="nonzero" fill-opacity="1" /><path clip-path="url(#clip340)" d="M112.664 1404.52 Q109.73 1404.52 108.244 1407.42 Q106.777 1410.29 106.777 1416.09 Q106.777 1421.86 108.244 1424.76 Q109.73 1427.63 112.664 1427.63 Q115.617 1427.63 117.084 1424.76 Q118.57 1421.86 118.57 1416.09 Q118.57 1410.29 117.084 1407.42 Q115.617 1404.52 112.664 1404.52 M112.664 1401.51 Q117.385 1401.51 119.868 1405.25 Q122.369 1408.98 122.369 1416.09 Q122.369 1423.18 119.868 1426.92 Q117.385 1430.64 112.664 1430.64 Q107.943 1430.64 105.442 1426.92 Q102.959 1423.18 102.959 1416.09 Q102.959 1408.98 105.442 1405.25 Q107.943 1401.51 112.664 1401.51 Z" fill="#000000" fill-rule="nonzero" fill-opacity="1" /><path clip-path="url(#clip340)" d="M54.3529 879.852 L61.9918 879.852 L61.9918 853.486 L53.6816 855.153 L53.6816 850.894 L61.9455 849.227 L66.6214 849.227 L66.6214 879.852 L74.2602 879.852 L74.2602 883.787 L54.3529 883.787 L54.3529 879.852 Z" fill="#000000" fill-rule="nonzero" fill-opacity="1" /><path clip-path="url(#clip340)" d="M93.7046 852.306 Q90.0935 852.306 88.2648 855.87 Q86.4592 859.412 86.4592 866.542 Q86.4592 873.648 88.2648 877.213 Q90.0935 880.755 93.7046 880.755 Q97.3388 880.755 99.1444 877.213 Q100.973 873.648 100.973 866.542 Q100.973 859.412 99.1444 855.87 Q97.3388 852.306 93.7046 852.306 M93.7046 848.602 Q99.5147 848.602 102.57 853.208 Q105.649 857.792 105.649 866.542 Q105.649 875.268 102.57 879.875 Q99.5147 884.458 93.7046 884.458 Q87.8944 884.458 84.8157 879.875 Q81.7602 875.268 81.7602 866.542 Q81.7602 857.792 84.8157 853.208 Q87.8944 848.602 93.7046 848.602 Z" fill="#000000" fill-rule="nonzero" fill-opacity="1" /><path clip-path="url(#clip340)" d="M106.194 853.179 L112.401 853.179 L112.401 831.757 L105.649 833.111 L105.649 829.651 L112.363 828.297 L116.162 828.297 L116.162 853.179 L122.369 853.179 L122.369 856.377 L106.194 856.377 L106.194 853.179 Z" fill="#000000" fill-rule="nonzero" fill-opacity="1" /><path clip-path="url(#clip340)" d="M53.2433 306.131 L60.8821 306.131 L60.8821 279.765 L52.572 281.432 L52.572 277.173 L60.8358 275.506 L65.5117 275.506 L65.5117 306.131 L73.1506 306.131 L73.1506 310.066 L53.2433 310.066 L53.2433 306.131 Z" fill="#000000" fill-rule="nonzero" fill-opacity="1" /><path clip-path="url(#clip340)" d="M92.5949 278.585 Q88.9838 278.585 87.1551 282.15 Q85.3496 285.691 85.3496 292.821 Q85.3496 299.927 87.1551 303.492 Q88.9838 307.034 92.5949 307.034 Q96.2292 307.034 98.0347 303.492 Q99.8634 299.927 99.8634 292.821 Q99.8634 285.691 98.0347 282.15 Q96.2292 278.585 92.5949 278.585 M92.5949 274.881 Q98.4051 274.881 101.461 279.488 Q104.539 284.071 104.539 292.821 Q104.539 301.548 101.461 306.154 Q98.4051 310.737 92.5949 310.737 Q86.7848 310.737 83.7061 306.154 Q80.6505 301.548 80.6505 292.821 Q80.6505 284.071 83.7061 279.488 Q86.7848 274.881 92.5949 274.881 Z" fill="#000000" fill-rule="nonzero" fill-opacity="1" /><path clip-path="url(#clip340)" d="M109.11 279.458 L122.369 279.458 L122.369 282.656 L104.539 282.656 L104.539 279.458 Q106.702 277.22 110.426 273.459 Q114.169 269.678 115.128 268.588 Q116.952 266.537 117.667 265.127 Q118.401 263.698 118.401 262.325 Q118.401 260.086 116.821 258.676 Q115.26 257.265 112.739 257.265 Q110.953 257.265 108.959 257.886 Q106.984 258.507 104.727 259.767 L104.727 255.93 Q107.022 255.008 109.016 254.538 Q111.009 254.068 112.664 254.068 Q117.028 254.068 119.623 256.25 Q122.219 258.431 122.219 262.08 Q122.219 263.81 121.56 265.371 Q120.921 266.914 119.209 269.02 Q118.739 269.566 116.219 272.18 Q113.699 274.775 109.11 279.458 Z" fill="#000000" fill-rule="nonzero" fill-opacity="1" /><polyline clip-path="url(#clip342)" style="stroke:#009af9; stroke-linecap:round; stroke-linejoin:round; stroke-width:4; stroke-opacity:1; fill:none" points="220.474,1433.78 220.474,948.93 224.068,948.93 224.068,776.223 227.662,776.223 227.662,814.631 231.257,814.631 231.257,713.604 234.851,713.604 234.851,631.753 238.445,631.753 238.445,149.767 242.039,149.767 242.039,166.135 245.633,166.135 245.633,304.421 249.227,304.421 249.227,469.217 252.821,469.217 252.821,794.688 256.415,794.688 256.415,776.223 260.009,776.223 260.009,727.846 263.603,727.846 263.603,794.688 267.197,794.688 267.197,860.059 270.791,860.059 270.791,742.951 274.385,742.951 274.385,814.631 277.979,814.631 281.573,814.631 281.573,948.93 285.167,948.93 285.167,1032.77 288.761,1032.77 288.761,814.631 292.355,814.631 292.355,860.059 295.95,860.059 295.95,987.339 299.544,987.339 299.544,860.059 303.138,860.059 303.138,836.311 306.732,836.311 306.732,1032.77 310.326,1032.77 310.326,987.339 313.92,987.339 313.92,1032.77 317.514,1032.77 317.514,948.93 321.108,948.93 321.108,1160.05 324.702,1160.05 324.702,948.93 328.296,948.93 328.296,1032.77 331.89,1032.77 331.89,987.339 335.484,987.339 335.484,405.448 339.078,405.448 339.078,87.6286 342.672,87.6286 342.672,508.492 346.266,508.492 346.266,1088.37 349.86,1088.37 349.86,1160.05 353.454,1160.05 353.454,1032.77 357.048,1032.77 357.048,1088.37 360.643,1088.37 360.643,759.032 364.237,759.032 364.237,860.059 367.831,860.059 367.831,987.339 371.425,987.339 371.425,1261.07 375.019,1261.07 375.019,700.133 378.613,700.133 378.613,860.059 382.207,860.059 382.207,1032.77 385.801,1032.77 385.801,987.339 389.395,987.339 389.395,1088.37 392.989,1088.37 392.989,948.93 396.583,948.93 396.583,915.659 400.177,915.659 400.177,948.93 403.771,948.93 403.771,915.659 407.365,915.659 407.365,1032.77 410.959,1032.77 414.553,1032.77 414.553,915.659 418.147,915.659 418.147,987.339 421.741,987.339 425.336,987.339 425.336,948.93 428.93,948.93 428.93,1032.77 432.524,1032.77 432.524,1160.05 436.118,1160.05 436.118,886.311 439.712,886.311 439.712,987.339 443.306,987.339 443.306,1261.07 446.9,1261.07 446.9,1160.05 450.494,1160.05 454.088,1160.05 457.682,1160.05 457.682,1032.77 461.276,1032.77 461.276,1160.05 464.87,1160.05 464.87,1032.77 468.464,1032.77 468.464,1088.37 472.058,1088.37 472.058,1032.77 475.652,1032.77 475.652,1088.37 479.246,1088.37 479.246,1160.05 482.84,1160.05 482.84,1261.07 486.434,1261.07 486.434,987.339 490.029,987.339 490.029,1160.05 493.623,1160.05 493.623,1261.07 497.217,1261.07 500.811,1261.07 500.811,1160.05 504.405,1160.05 504.405,603.515 507.999,603.515 507.999,836.311 511.593,836.311 511.593,1433.78 515.187,1433.78 518.781,1433.78 "/>
<polyline clip-path="url(#clip342)" style="stroke:#009af9; stroke-linecap:round; stroke-linejoin:round; stroke-width:4; stroke-opacity:1; fill:none" points="522.375,1433.78 522.375,1160.05 525.969,1160.05 525.969,1433.78 "/>
<polyline clip-path="url(#clip342)" style="stroke:#009af9; stroke-linecap:round; stroke-linejoin:round; stroke-width:4; stroke-opacity:1; fill:none" points="529.563,1433.78 529.563,1433.78 533.157,1433.78 536.751,1433.78 536.751,1261.07 540.345,1261.07 540.345,1088.37 543.939,1088.37 543.939,886.311 547.533,886.311 547.533,375.209 551.128,375.209 551.128,540.897 554.722,540.897 554.722,1160.05 558.316,1160.05 558.316,1433.78 "/>
<polyline clip-path="url(#clip342)" style="stroke:#009af9; stroke-linecap:round; stroke-linejoin:round; stroke-width:4; stroke-opacity:1; fill:none" points="561.91,1433.78 561.91,1433.78 565.504,1433.78 "/>
<polyline clip-path="url(#clip342)" style="stroke:#009af9; stroke-linecap:round; stroke-linejoin:round; stroke-width:4; stroke-opacity:1; fill:none" points="576.286,1433.78 576.286,1261.07 579.88,1261.07 583.474,1261.07 587.068,1261.07 590.662,1261.07 594.256,1261.07 594.256,1433.78 597.85,1433.78 597.85,1261.07 601.444,1261.07 601.444,1433.78 605.038,1433.78 605.038,1160.05 608.632,1160.05 608.632,1261.07 612.226,1261.07 612.226,1433.78 615.821,1433.78 615.821,1261.07 619.415,1261.07 623.009,1261.07 623.009,1433.78 626.603,1433.78 626.603,1261.07 630.197,1261.07 630.197,1160.05 633.791,1160.05 633.791,1032.77 637.385,1032.77 637.385,794.688 640.979,794.688 640.979,1433.78 644.573,1433.78 644.573,1261.07 648.167,1261.07 651.761,1261.07 655.355,1261.07 655.355,1433.78 658.949,1433.78 658.949,1088.37 662.543,1088.37 662.543,1433.78 666.137,1433.78 669.731,1433.78 673.325,1433.78 673.325,1261.07 676.919,1261.07 676.919,1433.78 680.514,1433.78 "/>
<polyline clip-path="url(#clip342)" style="stroke:#009af9; stroke-linecap:round; stroke-linejoin:round; stroke-width:4; stroke-opacity:1; fill:none" points="684.108,1433.78 684.108,1160.05 687.702,1160.05 687.702,987.339 691.296,987.339 691.296,1433.78 694.89,1433.78 694.89,1160.05 698.484,1160.05 698.484,1433.78 702.078,1433.78 705.672,1433.78 "/>
<polyline clip-path="url(#clip342)" style="stroke:#009af9; stroke-linecap:round; stroke-linejoin:round; stroke-width:4; stroke-opacity:1; fill:none" points="709.266,1433.78 709.266,1433.78 712.86,1433.78 716.454,1433.78 716.454,915.659 720.048,915.659 720.048,1261.07 723.642,1261.07 723.642,1433.78 727.236,1433.78 730.83,1433.78 "/>
<polyline clip-path="url(#clip342)" style="stroke:#009af9; stroke-linecap:round; stroke-linejoin:round; stroke-width:4; stroke-opacity:1; fill:none" points="741.612,1433.78 741.612,1433.78 745.207,1433.78 745.207,1160.05 748.801,1160.05 748.801,1433.78 752.395,1433.78 755.989,1433.78 755.989,1261.07 759.583,1261.07 763.177,1261.07 763.177,1433.78 766.771,1433.78 770.365,1433.78 770.365,1261.07 773.959,1261.07 773.959,1433.78 777.553,1433.78 "/>
<polyline clip-path="url(#clip342)" style="stroke:#009af9; stroke-linecap:round; stroke-linejoin:round; stroke-width:4; stroke-opacity:1; fill:none" points="781.147,1433.78 781.147,1433.78 784.741,1433.78 784.741,1261.07 788.335,1261.07 788.335,1433.78 791.929,1433.78 795.523,1433.78 "/>
<polyline clip-path="url(#clip342)" style="stroke:#009af9; stroke-linecap:round; stroke-linejoin:round; stroke-width:4; stroke-opacity:1; fill:none" points="799.117,1433.78 799.117,1433.78 802.711,1433.78 806.305,1433.78 806.305,1261.07 809.9,1261.07 813.494,1261.07 813.494,1433.78 817.088,1433.78 "/>
<polyline clip-path="url(#clip342)" style="stroke:#009af9; stroke-linecap:round; stroke-linejoin:round; stroke-width:4; stroke-opacity:1; fill:none" points="820.682,1433.78 820.682,1433.78 824.276,1433.78 827.87,1433.78 "/>
<polyline clip-path="url(#clip342)" style="stroke:#009af9; stroke-linecap:round; stroke-linejoin:round; stroke-width:4; stroke-opacity:1; fill:none" points="838.652,1433.78 838.652,1261.07 842.246,1261.07 842.246,1433.78 "/>
<polyline clip-path="url(#clip342)" style="stroke:#009af9; stroke-linecap:round; stroke-linejoin:round; stroke-width:4; stroke-opacity:1; fill:none" points="845.84,1433.78 845.84,1433.78 849.434,1433.78 849.434,1261.07 853.028,1261.07 856.622,1261.07 860.216,1261.07 860.216,1433.78 863.81,1433.78 867.404,1433.78 867.404,1261.07 870.998,1261.07 870.998,1433.78 "/>
<polyline clip-path="url(#clip342)" style="stroke:#009af9; stroke-linecap:round; stroke-linejoin:round; stroke-width:4; stroke-opacity:1; fill:none" points="874.593,1433.78 874.593,1261.07 878.187,1261.07 878.187,1433.78 "/>
<polyline clip-path="url(#clip342)" style="stroke:#009af9; stroke-linecap:round; stroke-linejoin:round; stroke-width:4; stroke-opacity:1; fill:none" points="881.781,1433.78 881.781,1433.78 885.375,1433.78 888.969,1433.78 888.969,1261.07 892.563,1261.07 892.563,1433.78 "/>
<polyline clip-path="url(#clip342)" style="stroke:#009af9; stroke-linecap:round; stroke-linejoin:round; stroke-width:4; stroke-opacity:1; fill:none" points="903.345,1433.78 903.345,1433.78 906.939,1433.78 "/>
<polyline clip-path="url(#clip342)" style="stroke:#009af9; stroke-linecap:round; stroke-linejoin:round; stroke-width:4; stroke-opacity:1; fill:none" points="910.533,1433.78 910.533,1433.78 914.127,1433.78 917.721,1433.78 917.721,1261.07 921.315,1261.07 921.315,1433.78 "/>
<polyline clip-path="url(#clip342)" style="stroke:#009af9; stroke-linecap:round; stroke-linejoin:round; stroke-width:4; stroke-opacity:1; fill:none" points="928.503,1433.78 928.503,1261.07 932.097,1261.07 935.691,1261.07 935.691,1433.78 939.286,1433.78 942.88,1433.78 946.474,1433.78 950.068,1433.78 950.068,1261.07 953.662,1261.07 953.662,1433.78 "/>
<polyline clip-path="url(#clip342)" style="stroke:#009af9; stroke-linecap:round; stroke-linejoin:round; stroke-width:4; stroke-opacity:1; fill:none" points="960.85,1433.78 960.85,1433.78 964.444,1433.78 968.038,1433.78 "/>
<polyline clip-path="url(#clip342)" style="stroke:#009af9; stroke-linecap:round; stroke-linejoin:round; stroke-width:4; stroke-opacity:1; fill:none" points="971.632,1433.78 971.632,1433.78 975.226,1433.78 "/>
<polyline clip-path="url(#clip342)" style="stroke:#009af9; stroke-linecap:round; stroke-linejoin:round; stroke-width:4; stroke-opacity:1; fill:none" points="978.82,1433.78 978.82,1433.78 982.414,1433.78 "/>
<polyline clip-path="url(#clip342)" style="stroke:#009af9; stroke-linecap:round; stroke-linejoin:round; stroke-width:4; stroke-opacity:1; fill:none" points="989.602,1433.78 989.602,1433.78 993.196,1433.78 "/>
<polyline clip-path="url(#clip342)" style="stroke:#009af9; stroke-linecap:round; stroke-linejoin:round; stroke-width:4; stroke-opacity:1; fill:none" points="1007.57,1433.78 1007.57,1433.78 1011.17,1433.78 1014.76,1433.78 "/>
<polyline clip-path="url(#clip342)" style="stroke:#009af9; stroke-linecap:round; stroke-linejoin:round; stroke-width:4; stroke-opacity:1; fill:none" points="1018.35,1433.78 1018.35,1261.07 1021.95,1261.07 1021.95,1433.78 1025.54,1433.78 "/>
<polyline clip-path="url(#clip342)" style="stroke:#009af9; stroke-linecap:round; stroke-linejoin:round; stroke-width:4; stroke-opacity:1; fill:none" points="1032.73,1433.78 1032.73,1433.78 1036.33,1433.78 "/>
<polyline clip-path="url(#clip342)" style="stroke:#009af9; stroke-linecap:round; stroke-linejoin:round; stroke-width:4; stroke-opacity:1; fill:none" points="1039.92,1433.78 1039.92,1433.78 1043.51,1433.78 "/>
<polyline clip-path="url(#clip342)" style="stroke:#009af9; stroke-linecap:round; stroke-linejoin:round; stroke-width:4; stroke-opacity:1; fill:none" points="1047.11,1433.78 1047.11,1433.78 1050.7,1433.78 "/>
<polyline clip-path="url(#clip342)" style="stroke:#009af9; stroke-linecap:round; stroke-linejoin:round; stroke-width:4; stroke-opacity:1; fill:none" points="1054.3,1433.78 1054.3,1433.78 1057.89,1433.78 1061.48,1433.78 "/>
<polyline clip-path="url(#clip342)" style="stroke:#009af9; stroke-linecap:round; stroke-linejoin:round; stroke-width:4; stroke-opacity:1; fill:none" points="1072.27,1433.78 1072.27,1261.07 1075.86,1261.07 1075.86,1433.78 "/>
<polyline clip-path="url(#clip342)" style="stroke:#009af9; stroke-linecap:round; stroke-linejoin:round; stroke-width:4; stroke-opacity:1; fill:none" points="1079.45,1433.78 1079.45,1433.78 1083.05,1433.78 1086.64,1433.78 "/>
<polyline clip-path="url(#clip342)" style="stroke:#009af9; stroke-linecap:round; stroke-linejoin:round; stroke-width:4; stroke-opacity:1; fill:none" points="1108.21,1433.78 1108.21,1433.78 1111.8,1433.78 "/>
<polyline clip-path="url(#clip342)" style="stroke:#009af9; stroke-linecap:round; stroke-linejoin:round; stroke-width:4; stroke-opacity:1; fill:none" points="1115.39,1433.78 1115.39,1433.78 1118.99,1433.78 1122.58,1433.78 1126.18,1433.78 1126.18,1160.05 1129.77,1160.05 1129.77,1433.78 "/>
<polyline clip-path="url(#clip342)" style="stroke:#009af9; stroke-linecap:round; stroke-linejoin:round; stroke-width:4; stroke-opacity:1; fill:none" points="1136.96,1433.78 1136.96,1160.05 1140.55,1160.05 1140.55,1433.78 "/>
<polyline clip-path="url(#clip342)" style="stroke:#009af9; stroke-linecap:round; stroke-linejoin:round; stroke-width:4; stroke-opacity:1; fill:none" points="1162.12,1433.78 1162.12,1261.07 1165.71,1261.07 1165.71,1433.78 1169.31,1433.78 "/>
<polyline clip-path="url(#clip342)" style="stroke:#009af9; stroke-linecap:round; stroke-linejoin:round; stroke-width:4; stroke-opacity:1; fill:none" points="1180.09,1433.78 1180.09,1433.78 1183.68,1433.78 "/>
<polyline clip-path="url(#clip342)" style="stroke:#009af9; stroke-linecap:round; stroke-linejoin:round; stroke-width:4; stroke-opacity:1; fill:none" points="1187.28,1433.78 1187.28,1261.07 1190.87,1261.07 1190.87,1433.78 1194.46,1433.78 "/>
<polyline clip-path="url(#clip342)" style="stroke:#009af9; stroke-linecap:round; stroke-linejoin:round; stroke-width:4; stroke-opacity:1; fill:none" points="1198.06,1433.78 1198.06,1433.78 1201.65,1433.78 "/>
<polyline clip-path="url(#clip342)" style="stroke:#009af9; stroke-linecap:round; stroke-linejoin:round; stroke-width:4; stroke-opacity:1; fill:none" points="1205.25,1433.78 1205.25,1261.07 1208.84,1261.07 1208.84,1433.78 1212.43,1433.78 "/>
<polyline clip-path="url(#clip342)" style="stroke:#009af9; stroke-linecap:round; stroke-linejoin:round; stroke-width:4; stroke-opacity:1; fill:none" points="1219.62,1433.78 1219.62,1261.07 1223.22,1261.07 1223.22,1433.78 1226.81,1433.78 "/>
<polyline clip-path="url(#clip342)" style="stroke:#009af9; stroke-linecap:round; stroke-linejoin:round; stroke-width:4; stroke-opacity:1; fill:none" points="1234,1433.78 1234,1433.78 1237.59,1433.78 1241.19,1433.78 1244.78,1433.78 "/>
<polyline clip-path="url(#clip342)" style="stroke:#009af9; stroke-linecap:round; stroke-linejoin:round; stroke-width:4; stroke-opacity:1; fill:none" points="1259.16,1433.78 1259.16,1433.78 1262.75,1433.78 "/>
<polyline clip-path="url(#clip342)" style="stroke:#009af9; stroke-linecap:round; stroke-linejoin:round; stroke-width:4; stroke-opacity:1; fill:none" points="1273.53,1433.78 1273.53,1160.05 1277.13,1160.05 1277.13,1433.78 "/>
<polyline clip-path="url(#clip342)" style="stroke:#009af9; stroke-linecap:round; stroke-linejoin:round; stroke-width:4; stroke-opacity:1; fill:none" points="1280.72,1433.78 1280.72,1433.78 1284.31,1433.78 "/>
<polyline clip-path="url(#clip342)" style="stroke:#009af9; stroke-linecap:round; stroke-linejoin:round; stroke-width:4; stroke-opacity:1; fill:none" points="1287.91,1433.78 1287.91,1433.78 1291.5,1433.78 "/>
<polyline clip-path="url(#clip342)" style="stroke:#009af9; stroke-linecap:round; stroke-linejoin:round; stroke-width:4; stroke-opacity:1; fill:none" points="1295.1,1433.78 1295.1,1433.78 1298.69,1433.78 1302.29,1433.78 1302.29,1160.05 1305.88,1160.05 1305.88,1433.78 "/>
<polyline clip-path="url(#clip342)" style="stroke:#009af9; stroke-linecap:round; stroke-linejoin:round; stroke-width:4; stroke-opacity:1; fill:none" points="1320.26,1433.78 1320.26,1261.07 1323.85,1261.07 1323.85,1433.78 1327.44,1433.78 "/>
<polyline clip-path="url(#clip342)" style="stroke:#009af9; stroke-linecap:round; stroke-linejoin:round; stroke-width:4; stroke-opacity:1; fill:none" points="1331.04,1433.78 1331.04,1433.78 1334.63,1433.78 "/>
<polyline clip-path="url(#clip342)" style="stroke:#009af9; stroke-linecap:round; stroke-linejoin:round; stroke-width:4; stroke-opacity:1; fill:none" points="1338.23,1433.78 1338.23,1433.78 1341.82,1433.78 "/>
<polyline clip-path="url(#clip342)" style="stroke:#009af9; stroke-linecap:round; stroke-linejoin:round; stroke-width:4; stroke-opacity:1; fill:none" points="1349.01,1433.78 1349.01,1160.05 1352.6,1160.05 1352.6,1433.78 "/>
<polyline clip-path="url(#clip342)" style="stroke:#009af9; stroke-linecap:round; stroke-linejoin:round; stroke-width:4; stroke-opacity:1; fill:none" points="1356.2,1433.78 1356.2,1433.78 1359.79,1433.78 1363.38,1433.78 "/>
<polyline clip-path="url(#clip342)" style="stroke:#009af9; stroke-linecap:round; stroke-linejoin:round; stroke-width:4; stroke-opacity:1; fill:none" points="1366.98,1433.78 1366.98,1433.78 1370.57,1433.78 1374.17,1433.78 1377.76,1433.78 1381.35,1433.78 "/>
<polyline clip-path="url(#clip342)" style="stroke:#009af9; stroke-linecap:round; stroke-linejoin:round; stroke-width:4; stroke-opacity:1; fill:none" points="1384.95,1433.78 1384.95,1261.07 1388.54,1261.07 1388.54,1433.78 1392.14,1433.78 "/>
<polyline clip-path="url(#clip342)" style="stroke:#009af9; stroke-linecap:round; stroke-linejoin:round; stroke-width:4; stroke-opacity:1; fill:none" points="1402.92,1433.78 1402.92,1433.78 1406.51,1433.78 "/>
<polyline clip-path="url(#clip342)" style="stroke:#009af9; stroke-linecap:round; stroke-linejoin:round; stroke-width:4; stroke-opacity:1; fill:none" points="1417.3,1433.78 1417.3,1433.78 1420.89,1433.78 "/>
<polyline clip-path="url(#clip342)" style="stroke:#009af9; stroke-linecap:round; stroke-linejoin:round; stroke-width:4; stroke-opacity:1; fill:none" points="1428.08,1433.78 1428.08,1433.78 1431.67,1433.78 1431.67,1261.07 1435.27,1261.07 1435.27,1433.78 "/>
<polyline clip-path="url(#clip342)" style="stroke:#009af9; stroke-linecap:round; stroke-linejoin:round; stroke-width:4; stroke-opacity:1; fill:none" points="1453.24,1433.78 1453.24,1261.07 1456.83,1261.07 1456.83,1433.78 "/>
<polyline clip-path="url(#clip342)" style="stroke:#009af9; stroke-linecap:round; stroke-linejoin:round; stroke-width:4; stroke-opacity:1; fill:none" points="1464.02,1433.78 1464.02,1261.07 1467.61,1261.07 1467.61,1433.78 1471.21,1433.78 "/>
<polyline clip-path="url(#clip342)" style="stroke:#009af9; stroke-linecap:round; stroke-linejoin:round; stroke-width:4; stroke-opacity:1; fill:none" points="1474.8,1433.78 1474.8,1032.77 1478.39,1032.77 1478.39,1433.78 1481.99,1433.78 1485.58,1433.78 1485.58,1160.05 1489.18,1160.05 1489.18,1433.78 "/>
<polyline clip-path="url(#clip342)" style="stroke:#009af9; stroke-linecap:round; stroke-linejoin:round; stroke-width:4; stroke-opacity:1; fill:none" points="1496.36,1433.78 1496.36,1433.78 1499.96,1433.78 "/>
<polyline clip-path="url(#clip342)" style="stroke:#009af9; stroke-linecap:round; stroke-linejoin:round; stroke-width:4; stroke-opacity:1; fill:none" points="1503.55,1433.78 1503.55,1433.78 1507.15,1433.78 1510.74,1433.78 1510.74,1261.07 1514.33,1261.07 1514.33,1433.78 "/>
<polyline clip-path="url(#clip342)" style="stroke:#009af9; stroke-linecap:round; stroke-linejoin:round; stroke-width:4; stroke-opacity:1; fill:none" points="1517.93,1433.78 1517.93,1433.78 1521.52,1433.78 1525.12,1433.78 1528.71,1433.78 "/>
<polyline clip-path="url(#clip342)" style="stroke:#009af9; stroke-linecap:round; stroke-linejoin:round; stroke-width:4; stroke-opacity:1; fill:none" points="1539.49,1433.78 1539.49,1433.78 1543.09,1433.78 "/>
<polyline clip-path="url(#clip342)" style="stroke:#009af9; stroke-linecap:round; stroke-linejoin:round; stroke-width:4; stroke-opacity:1; fill:none" points="1546.68,1433.78 1546.68,1433.78 1550.28,1433.78 "/>
<polyline clip-path="url(#clip342)" style="stroke:#009af9; stroke-linecap:round; stroke-linejoin:round; stroke-width:4; stroke-opacity:1; fill:none" points="1557.46,1433.78 1557.46,1433.78 1561.06,1433.78 "/>
<polyline clip-path="url(#clip342)" style="stroke:#009af9; stroke-linecap:round; stroke-linejoin:round; stroke-width:4; stroke-opacity:1; fill:none" points="1568.25,1433.78 1568.25,1433.78 1571.84,1433.78 "/>
<polyline clip-path="url(#clip342)" style="stroke:#009af9; stroke-linecap:round; stroke-linejoin:round; stroke-width:4; stroke-opacity:1; fill:none" points="1575.43,1433.78 1575.43,1261.07 1579.03,1261.07 1579.03,1433.78 "/>
<polyline clip-path="url(#clip342)" style="stroke:#009af9; stroke-linecap:round; stroke-linejoin:round; stroke-width:4; stroke-opacity:1; fill:none" points="1597,1433.78 1597,1160.05 1600.59,1160.05 1600.59,1433.78 1604.19,1433.78 1604.19,1261.07 1607.78,1261.07 1607.78,1433.78 1611.37,1433.78 1614.97,1433.78 1614.97,1088.37 1618.56,1088.37 1618.56,1261.07 1622.16,1261.07 1622.16,1433.78 "/>
<polyline clip-path="url(#clip342)" style="stroke:#009af9; stroke-linecap:round; stroke-linejoin:round; stroke-width:4; stroke-opacity:1; fill:none" points="1629.34,1433.78 1629.34,1088.37 1632.94,1088.37 1632.94,1433.78 1636.53,1433.78 "/>
<polyline clip-path="url(#clip342)" style="stroke:#009af9; stroke-linecap:round; stroke-linejoin:round; stroke-width:4; stroke-opacity:1; fill:none" points="1640.13,1433.78 1640.13,1433.78 1643.72,1433.78 1647.31,1433.78 1650.91,1433.78 1650.91,1160.05 1654.5,1160.05 1658.1,1160.05 1658.1,1088.37 1661.69,1088.37 1661.69,1433.78 1665.28,1433.78 1668.88,1433.78 1668.88,1261.07 1672.47,1261.07 1672.47,1433.78 "/>
<polyline clip-path="url(#clip342)" style="stroke:#009af9; stroke-linecap:round; stroke-linejoin:round; stroke-width:4; stroke-opacity:1; fill:none" points="1676.07,1433.78 1676.07,1261.07 1679.66,1261.07 1683.26,1261.07 1683.26,1433.78 1686.85,1433.78 1690.44,1433.78 "/>
<polyline clip-path="url(#clip342)" style="stroke:#009af9; stroke-linecap:round; stroke-linejoin:round; stroke-width:4; stroke-opacity:1; fill:none" points="1694.04,1433.78 1694.04,1261.07 1697.63,1261.07 1701.23,1261.07 1704.82,1261.07 1704.82,1433.78 "/>
<polyline clip-path="url(#clip342)" style="stroke:#009af9; stroke-linecap:round; stroke-linejoin:round; stroke-width:4; stroke-opacity:1; fill:none" points="1729.98,1433.78 1729.98,1433.78 1733.57,1433.78 "/>
<polyline clip-path="url(#clip342)" style="stroke:#009af9; stroke-linecap:round; stroke-linejoin:round; stroke-width:4; stroke-opacity:1; fill:none" points="1783.89,1433.78 1783.89,713.604 1787.48,713.604 1787.48,652.529 1791.08,652.529 1791.08,1160.05 1794.67,1160.05 1794.67,1433.78 "/>
<polyline clip-path="url(#clip342)" style="stroke:#009af9; stroke-linecap:round; stroke-linejoin:round; stroke-width:4; stroke-opacity:1; fill:none" points="1834.21,1433.78 1834.21,1433.78 1837.8,1433.78 "/>
<polyline clip-path="url(#clip342)" style="stroke:#009af9; stroke-linecap:round; stroke-linejoin:round; stroke-width:4; stroke-opacity:1; fill:none" points="1902.49,1433.78 1902.49,1261.07 1906.09,1261.07 1906.09,1433.78 1909.68,1433.78 "/>
<polyline clip-path="url(#clip342)" style="stroke:#009af9; stroke-linecap:round; stroke-linejoin:round; stroke-width:4; stroke-opacity:1; fill:none" points="1995.94,1433.78 1995.94,1433.78 1999.53,1433.78 "/>
<polyline clip-path="url(#clip342)" style="stroke:#009af9; stroke-linecap:round; stroke-linejoin:round; stroke-width:4; stroke-opacity:1; fill:none" points="2003.13,1433.78 2003.13,1433.78 2006.72,1433.78 "/>
<polyline clip-path="url(#clip342)" style="stroke:#009af9; stroke-linecap:round; stroke-linejoin:round; stroke-width:4; stroke-opacity:1; fill:none" points="2143.29,1433.78 2143.29,1433.78 2146.89,1433.78 "/>
<polyline clip-path="url(#clip342)" style="stroke:#009af9; stroke-linecap:round; stroke-linejoin:round; stroke-width:4; stroke-opacity:1; fill:none" points="2287.06,1433.78 2287.06,1433.78 2290.65,1433.78 "/>
<path clip-path="url(#clip340)" d="M1530.8 198.488 L2279.61 198.488 L2279.61 94.8081 L1530.8 94.8081  Z" fill="#ffffff" fill-rule="evenodd" fill-opacity="1"/>
<polyline clip-path="url(#clip340)" style="stroke:#000000; stroke-linecap:round; stroke-linejoin:round; stroke-width:4; stroke-opacity:1; fill:none" points="1530.8,198.488 2279.61,198.488 2279.61,94.8081 1530.8,94.8081 1530.8,198.488 "/>
<polyline clip-path="url(#clip340)" style="stroke:#009af9; stroke-linecap:round; stroke-linejoin:round; stroke-width:4; stroke-opacity:1; fill:none" points="1555.18,146.648 1701.47,146.648 "/>
<path clip-path="url(#clip340)" d="M1725.86 153.697 L1725.86 138.002 L1730.11 138.002 L1730.11 153.535 Q1730.11 157.215 1731.55 159.067 Q1732.99 160.896 1735.86 160.896 Q1739.3 160.896 1741.3 158.697 Q1743.31 156.498 1743.31 152.701 L1743.31 138.002 L1747.57 138.002 L1747.57 163.928 L1743.31 163.928 L1743.31 159.947 Q1741.76 162.308 1739.7 163.465 Q1737.66 164.599 1734.95 164.599 Q1730.49 164.599 1728.17 161.822 Q1725.86 159.044 1725.86 153.697 M1736.57 137.377 L1736.57 137.377 Z" fill="#000000" fill-rule="nonzero" fill-opacity="1" /><path clip-path="url(#clip340)" d="M1777.89 148.28 L1777.89 163.928 L1773.63 163.928 L1773.63 148.419 Q1773.63 144.738 1772.2 142.91 Q1770.76 141.081 1767.89 141.081 Q1764.44 141.081 1762.45 143.28 Q1760.46 145.479 1760.46 149.275 L1760.46 163.928 L1756.18 163.928 L1756.18 138.002 L1760.46 138.002 L1760.46 142.03 Q1761.99 139.692 1764.05 138.535 Q1766.13 137.377 1768.84 137.377 Q1773.31 137.377 1775.6 140.155 Q1777.89 142.91 1777.89 148.28 Z" fill="#000000" fill-rule="nonzero" fill-opacity="1" /><path clip-path="url(#clip340)" d="M1805.04 138.998 L1805.04 142.979 Q1803.24 141.984 1801.41 141.498 Q1799.61 140.988 1797.75 140.988 Q1793.61 140.988 1791.32 143.627 Q1789.03 146.243 1789.03 150.988 Q1789.03 155.734 1791.32 158.373 Q1793.61 160.988 1797.75 160.988 Q1799.61 160.988 1801.41 160.502 Q1803.24 159.993 1805.04 158.998 L1805.04 162.933 Q1803.26 163.766 1801.34 164.183 Q1799.44 164.599 1797.29 164.599 Q1791.43 164.599 1787.98 160.919 Q1784.54 157.238 1784.54 150.988 Q1784.54 144.646 1788.01 141.012 Q1791.5 137.377 1797.57 137.377 Q1799.54 137.377 1801.41 137.794 Q1803.29 138.188 1805.04 138.998 Z" fill="#000000" fill-rule="nonzero" fill-opacity="1" /><path clip-path="url(#clip340)" d="M1824.23 150.896 Q1819.07 150.896 1817.08 152.076 Q1815.09 153.257 1815.09 156.104 Q1815.09 158.373 1816.57 159.715 Q1818.08 161.035 1820.65 161.035 Q1824.19 161.035 1826.32 158.535 Q1828.47 156.011 1828.47 151.845 L1828.47 150.896 L1824.23 150.896 M1832.73 149.137 L1832.73 163.928 L1828.47 163.928 L1828.47 159.993 Q1827.01 162.354 1824.84 163.488 Q1822.66 164.599 1819.51 164.599 Q1815.53 164.599 1813.17 162.377 Q1810.83 160.132 1810.83 156.382 Q1810.83 152.007 1813.75 149.785 Q1816.69 147.562 1822.5 147.562 L1828.47 147.562 L1828.47 147.146 Q1828.47 144.206 1826.53 142.609 Q1824.6 140.988 1821.11 140.988 Q1818.89 140.988 1816.78 141.521 Q1814.67 142.053 1812.73 143.118 L1812.73 139.183 Q1815.07 138.28 1817.27 137.84 Q1819.47 137.377 1821.55 137.377 Q1827.17 137.377 1829.95 140.294 Q1832.73 143.211 1832.73 149.137 Z" fill="#000000" fill-rule="nonzero" fill-opacity="1" /><path clip-path="url(#clip340)" d="M1841.5 127.91 L1845.76 127.91 L1845.76 163.928 L1841.5 163.928 L1841.5 127.91 Z" fill="#000000" fill-rule="nonzero" fill-opacity="1" /><path clip-path="url(#clip340)" d="M1854.67 138.002 L1858.93 138.002 L1858.93 163.928 L1854.67 163.928 L1854.67 138.002 M1854.67 127.91 L1858.93 127.91 L1858.93 133.303 L1854.67 133.303 L1854.67 127.91 Z" fill="#000000" fill-rule="nonzero" fill-opacity="1" /><path clip-path="url(#clip340)" d="M1886.46 150.988 Q1886.46 146.289 1884.51 143.627 Q1882.59 140.942 1879.21 140.942 Q1875.83 140.942 1873.89 143.627 Q1871.97 146.289 1871.97 150.988 Q1871.97 155.687 1873.89 158.373 Q1875.83 161.035 1879.21 161.035 Q1882.59 161.035 1884.51 158.373 Q1886.46 155.687 1886.46 150.988 M1871.97 141.937 Q1873.31 139.623 1875.35 138.512 Q1877.41 137.377 1880.25 137.377 Q1884.97 137.377 1887.91 141.127 Q1890.88 144.877 1890.88 150.988 Q1890.88 157.099 1887.91 160.849 Q1884.97 164.599 1880.25 164.599 Q1877.41 164.599 1875.35 163.488 Q1873.31 162.354 1871.97 160.039 L1871.97 163.928 L1867.68 163.928 L1867.68 127.91 L1871.97 127.91 L1871.97 141.937 Z" fill="#000000" fill-rule="nonzero" fill-opacity="1" /><path clip-path="url(#clip340)" d="M1912.96 141.984 Q1912.24 141.567 1911.39 141.382 Q1910.55 141.174 1909.54 141.174 Q1905.92 141.174 1903.98 143.535 Q1902.06 145.873 1902.06 150.271 L1902.06 163.928 L1897.78 163.928 L1897.78 138.002 L1902.06 138.002 L1902.06 142.03 Q1903.4 139.669 1905.55 138.535 Q1907.71 137.377 1910.79 137.377 Q1911.22 137.377 1911.76 137.447 Q1912.29 137.493 1912.94 137.609 L1912.96 141.984 Z" fill="#000000" fill-rule="nonzero" fill-opacity="1" /><path clip-path="url(#clip340)" d="M1929.21 150.896 Q1924.05 150.896 1922.06 152.076 Q1920.07 153.257 1920.07 156.104 Q1920.07 158.373 1921.55 159.715 Q1923.05 161.035 1925.62 161.035 Q1929.16 161.035 1931.29 158.535 Q1933.45 156.011 1933.45 151.845 L1933.45 150.896 L1929.21 150.896 M1937.71 149.137 L1937.71 163.928 L1933.45 163.928 L1933.45 159.993 Q1931.99 162.354 1929.81 163.488 Q1927.64 164.599 1924.49 164.599 Q1920.51 164.599 1918.15 162.377 Q1915.81 160.132 1915.81 156.382 Q1915.81 152.007 1918.72 149.785 Q1921.66 147.562 1927.47 147.562 L1933.45 147.562 L1933.45 147.146 Q1933.45 144.206 1931.5 142.609 Q1929.58 140.988 1926.09 140.988 Q1923.86 140.988 1921.76 141.521 Q1919.65 142.053 1917.71 143.118 L1917.71 139.183 Q1920.04 138.28 1922.24 137.84 Q1924.44 137.377 1926.53 137.377 Q1932.15 137.377 1934.93 140.294 Q1937.71 143.211 1937.71 149.137 Z" fill="#000000" fill-rule="nonzero" fill-opacity="1" /><path clip-path="url(#clip340)" d="M1950.69 130.641 L1950.69 138.002 L1959.47 138.002 L1959.47 141.312 L1950.69 141.312 L1950.69 155.386 Q1950.69 158.558 1951.55 159.461 Q1952.43 160.363 1955.09 160.363 L1959.47 160.363 L1959.47 163.928 L1955.09 163.928 Q1950.16 163.928 1948.28 162.099 Q1946.41 160.248 1946.41 155.386 L1946.41 141.312 L1943.28 141.312 L1943.28 138.002 L1946.41 138.002 L1946.41 130.641 L1950.69 130.641 Z" fill="#000000" fill-rule="nonzero" fill-opacity="1" /><path clip-path="url(#clip340)" d="M1987.24 149.9 L1987.24 151.984 L1967.66 151.984 Q1967.94 156.382 1970.3 158.697 Q1972.68 160.988 1976.92 160.988 Q1979.37 160.988 1981.66 160.386 Q1983.98 159.785 1986.25 158.581 L1986.25 162.609 Q1983.96 163.581 1981.55 164.09 Q1979.14 164.599 1976.66 164.599 Q1970.46 164.599 1966.83 160.988 Q1963.22 157.377 1963.22 151.22 Q1963.22 144.854 1966.64 141.127 Q1970.09 137.377 1975.92 137.377 Q1981.15 137.377 1984.19 140.757 Q1987.24 144.113 1987.24 149.9 M1982.98 148.65 Q1982.94 145.155 1981.02 143.072 Q1979.12 140.988 1975.97 140.988 Q1972.41 140.988 1970.25 143.002 Q1968.12 145.016 1967.8 148.674 L1982.98 148.65 Z" fill="#000000" fill-rule="nonzero" fill-opacity="1" /><path clip-path="url(#clip340)" d="M2011.29 141.937 L2011.29 127.91 L2015.55 127.91 L2015.55 163.928 L2011.29 163.928 L2011.29 160.039 Q2009.95 162.354 2007.89 163.488 Q2005.85 164.599 2002.98 164.599 Q1998.28 164.599 1995.32 160.849 Q1992.38 157.099 1992.38 150.988 Q1992.38 144.877 1995.32 141.127 Q1998.28 137.377 2002.98 137.377 Q2005.85 137.377 2007.89 138.512 Q2009.95 139.623 2011.29 141.937 M1996.78 150.988 Q1996.78 155.687 1998.7 158.373 Q2000.65 161.035 2004.03 161.035 Q2007.4 161.035 2009.35 158.373 Q2011.29 155.687 2011.29 150.988 Q2011.29 146.289 2009.35 143.627 Q2007.4 140.942 2004.03 140.942 Q2000.65 140.942 1998.7 143.627 Q1996.78 146.289 1996.78 150.988 Z" fill="#000000" fill-rule="nonzero" fill-opacity="1" /><path clip-path="url(#clip340)" d="M2055.92 138.766 L2055.92 142.794 Q2054.12 141.868 2052.17 141.405 Q2050.23 140.942 2048.15 140.942 Q2044.97 140.942 2043.38 141.914 Q2041.8 142.887 2041.8 144.831 Q2041.8 146.312 2042.94 147.169 Q2044.07 148.002 2047.5 148.766 L2048.96 149.09 Q2053.49 150.062 2055.39 151.845 Q2057.31 153.604 2057.31 156.775 Q2057.31 160.386 2054.44 162.493 Q2051.59 164.599 2046.59 164.599 Q2044.51 164.599 2042.24 164.183 Q2040 163.789 2037.5 162.979 L2037.5 158.581 Q2039.86 159.808 2042.15 160.433 Q2044.44 161.035 2046.69 161.035 Q2049.7 161.035 2051.32 160.016 Q2052.94 158.974 2052.94 157.099 Q2052.94 155.363 2051.76 154.437 Q2050.6 153.512 2046.64 152.655 L2045.16 152.308 Q2041.2 151.474 2039.44 149.762 Q2037.68 148.025 2037.68 145.016 Q2037.68 141.359 2040.28 139.368 Q2042.87 137.377 2047.64 137.377 Q2050 137.377 2052.08 137.725 Q2054.16 138.072 2055.92 138.766 Z" fill="#000000" fill-rule="nonzero" fill-opacity="1" /><path clip-path="url(#clip340)" d="M2068.21 160.039 L2068.21 173.789 L2063.93 173.789 L2063.93 138.002 L2068.21 138.002 L2068.21 141.937 Q2069.56 139.623 2071.59 138.512 Q2073.65 137.377 2076.5 137.377 Q2081.22 137.377 2084.16 141.127 Q2087.13 144.877 2087.13 150.988 Q2087.13 157.099 2084.16 160.849 Q2081.22 164.599 2076.5 164.599 Q2073.65 164.599 2071.59 163.488 Q2069.56 162.354 2068.21 160.039 M2082.71 150.988 Q2082.71 146.289 2080.76 143.627 Q2078.84 140.942 2075.46 140.942 Q2072.08 140.942 2070.14 143.627 Q2068.21 146.289 2068.21 150.988 Q2068.21 155.687 2070.14 158.373 Q2072.08 161.035 2075.46 161.035 Q2078.84 161.035 2080.76 158.373 Q2082.71 155.687 2082.71 150.988 Z" fill="#000000" fill-rule="nonzero" fill-opacity="1" /><path clip-path="url(#clip340)" d="M2116.36 149.9 L2116.36 151.984 L2096.78 151.984 Q2097.06 156.382 2099.42 158.697 Q2101.8 160.988 2106.04 160.988 Q2108.49 160.988 2110.78 160.386 Q2113.1 159.785 2115.37 158.581 L2115.37 162.609 Q2113.08 163.581 2110.67 164.09 Q2108.26 164.599 2105.78 164.599 Q2099.58 164.599 2095.95 160.988 Q2092.33 157.377 2092.33 151.22 Q2092.33 144.854 2095.76 141.127 Q2099.21 137.377 2105.04 137.377 Q2110.27 137.377 2113.31 140.757 Q2116.36 144.113 2116.36 149.9 M2112.1 148.65 Q2112.06 145.155 2110.14 143.072 Q2108.24 140.988 2105.09 140.988 Q2101.52 140.988 2099.37 143.002 Q2097.24 145.016 2096.92 148.674 L2112.1 148.65 Z" fill="#000000" fill-rule="nonzero" fill-opacity="1" /><path clip-path="url(#clip340)" d="M2142.01 138.998 L2142.01 142.979 Q2140.21 141.984 2138.38 141.498 Q2136.57 140.988 2134.72 140.988 Q2130.58 140.988 2128.28 143.627 Q2125.99 146.243 2125.99 150.988 Q2125.99 155.734 2128.28 158.373 Q2130.58 160.988 2134.72 160.988 Q2136.57 160.988 2138.38 160.502 Q2140.21 159.993 2142.01 158.998 L2142.01 162.933 Q2140.23 163.766 2138.31 164.183 Q2136.41 164.599 2134.26 164.599 Q2128.4 164.599 2124.95 160.919 Q2121.5 157.238 2121.5 150.988 Q2121.5 144.646 2124.97 141.012 Q2128.47 137.377 2134.53 137.377 Q2136.5 137.377 2138.38 137.794 Q2140.25 138.188 2142.01 138.998 Z" fill="#000000" fill-rule="nonzero" fill-opacity="1" /><path clip-path="url(#clip340)" d="M2153.63 130.641 L2153.63 138.002 L2162.4 138.002 L2162.4 141.312 L2153.63 141.312 L2153.63 155.386 Q2153.63 158.558 2154.49 159.461 Q2155.37 160.363 2158.03 160.363 L2162.4 160.363 L2162.4 163.928 L2158.03 163.928 Q2153.1 163.928 2151.22 162.099 Q2149.35 160.248 2149.35 155.386 L2149.35 141.312 L2146.22 141.312 L2146.22 138.002 L2149.35 138.002 L2149.35 130.641 L2153.63 130.641 Z" fill="#000000" fill-rule="nonzero" fill-opacity="1" /><path clip-path="url(#clip340)" d="M2183.03 141.984 Q2182.31 141.567 2181.45 141.382 Q2180.62 141.174 2179.6 141.174 Q2175.99 141.174 2174.05 143.535 Q2172.13 145.873 2172.13 150.271 L2172.13 163.928 L2167.84 163.928 L2167.84 138.002 L2172.13 138.002 L2172.13 142.03 Q2173.47 139.669 2175.62 138.535 Q2177.77 137.377 2180.85 137.377 Q2181.29 137.377 2181.83 137.447 Q2182.36 137.493 2183.01 137.609 L2183.03 141.984 Z" fill="#000000" fill-rule="nonzero" fill-opacity="1" /><path clip-path="url(#clip340)" d="M2187.06 153.697 L2187.06 138.002 L2191.32 138.002 L2191.32 153.535 Q2191.32 157.215 2192.75 159.067 Q2194.19 160.896 2197.06 160.896 Q2200.51 160.896 2202.5 158.697 Q2204.51 156.498 2204.51 152.701 L2204.51 138.002 L2208.77 138.002 L2208.77 163.928 L2204.51 163.928 L2204.51 159.947 Q2202.96 162.308 2200.9 163.465 Q2198.86 164.599 2196.15 164.599 Q2191.69 164.599 2189.37 161.822 Q2187.06 159.044 2187.06 153.697 M2197.77 137.377 L2197.77 137.377 Z" fill="#000000" fill-rule="nonzero" fill-opacity="1" /><path clip-path="url(#clip340)" d="M2237.73 142.979 Q2239.32 140.109 2241.55 138.743 Q2243.77 137.377 2246.78 137.377 Q2250.83 137.377 2253.03 140.225 Q2255.23 143.049 2255.23 148.28 L2255.23 163.928 L2250.95 163.928 L2250.95 148.419 Q2250.95 144.692 2249.63 142.887 Q2248.31 141.081 2245.6 141.081 Q2242.29 141.081 2240.37 143.28 Q2238.45 145.479 2238.45 149.275 L2238.45 163.928 L2234.16 163.928 L2234.16 148.419 Q2234.16 144.669 2232.84 142.887 Q2231.52 141.081 2228.77 141.081 Q2225.51 141.081 2223.58 143.303 Q2221.66 145.502 2221.66 149.275 L2221.66 163.928 L2217.38 163.928 L2217.38 138.002 L2221.66 138.002 L2221.66 142.03 Q2223.12 139.646 2225.16 138.512 Q2227.2 137.377 2230 137.377 Q2232.82 137.377 2234.79 138.813 Q2236.78 140.248 2237.73 142.979 Z" fill="#000000" fill-rule="nonzero" fill-opacity="1" /></svg>
