<?xml version="1.0" encoding="utf-8"?>
<svg xmlns="http://www.w3.org/2000/svg" xmlns:xlink="http://www.w3.org/1999/xlink" width="600" height="400" viewBox="0 0 2400 1600">
<defs>
  <clipPath id="clip040">
    <rect x="0" y="0" width="2400" height="1600"/>
  </clipPath>
</defs>
<path clip-path="url(#clip040)" d="M0 1600 L2400 1600 L2400 0 L0 0  Z" fill="#ffffff" fill-rule="evenodd" fill-opacity="1"/>
<defs>
  <clipPath id="clip041">
    <rect x="480" y="0" width="1681" height="1600"/>
  </clipPath>
</defs>
<path clip-path="url(#clip040)" d="M158.369 1486.45 L2352.76 1486.45 L2352.76 47.2441 L158.369 47.2441  Z" fill="#ffffff" fill-rule="evenodd" fill-opacity="1"/>
<defs>
  <clipPath id="clip042">
    <rect x="158" y="47" width="2195" height="1440"/>
  </clipPath>
</defs>
<polyline clip-path="url(#clip042)" style="stroke:#000000; stroke-linecap:round; stroke-linejoin:round; stroke-width:2; stroke-opacity:0.1; fill:none" points="381.977,1486.45 381.977,47.2441 "/>
<polyline clip-path="url(#clip042)" style="stroke:#000000; stroke-linecap:round; stroke-linejoin:round; stroke-width:2; stroke-opacity:0.1; fill:none" points="675.619,1486.45 675.619,47.2441 "/>
<polyline clip-path="url(#clip042)" style="stroke:#000000; stroke-linecap:round; stroke-linejoin:round; stroke-width:2; stroke-opacity:0.1; fill:none" points="969.262,1486.45 969.262,47.2441 "/>
<polyline clip-path="url(#clip042)" style="stroke:#000000; stroke-linecap:round; stroke-linejoin:round; stroke-width:2; stroke-opacity:0.1; fill:none" points="1262.9,1486.45 1262.9,47.2441 "/>
<polyline clip-path="url(#clip042)" style="stroke:#000000; stroke-linecap:round; stroke-linejoin:round; stroke-width:2; stroke-opacity:0.1; fill:none" points="1556.55,1486.45 1556.55,47.2441 "/>
<polyline clip-path="url(#clip042)" style="stroke:#000000; stroke-linecap:round; stroke-linejoin:round; stroke-width:2; stroke-opacity:0.1; fill:none" points="1850.19,1486.45 1850.19,47.2441 "/>
<polyline clip-path="url(#clip042)" style="stroke:#000000; stroke-linecap:round; stroke-linejoin:round; stroke-width:2; stroke-opacity:0.1; fill:none" points="2143.83,1486.45 2143.83,47.2441 "/>
<polyline clip-path="url(#clip040)" style="stroke:#000000; stroke-linecap:round; stroke-linejoin:round; stroke-width:4; stroke-opacity:1; fill:none" points="158.369,1486.45 2352.76,1486.45 "/>
<polyline clip-path="url(#clip040)" style="stroke:#000000; stroke-linecap:round; stroke-linejoin:round; stroke-width:4; stroke-opacity:1; fill:none" points="381.977,1486.45 381.977,1467.55 "/>
<polyline clip-path="url(#clip040)" style="stroke:#000000; stroke-linecap:round; stroke-linejoin:round; stroke-width:4; stroke-opacity:1; fill:none" points="675.619,1486.45 675.619,1467.55 "/>
<polyline clip-path="url(#clip040)" style="stroke:#000000; stroke-linecap:round; stroke-linejoin:round; stroke-width:4; stroke-opacity:1; fill:none" points="969.262,1486.45 969.262,1467.55 "/>
<polyline clip-path="url(#clip040)" style="stroke:#000000; stroke-linecap:round; stroke-linejoin:round; stroke-width:4; stroke-opacity:1; fill:none" points="1262.9,1486.45 1262.9,1467.55 "/>
<polyline clip-path="url(#clip040)" style="stroke:#000000; stroke-linecap:round; stroke-linejoin:round; stroke-width:4; stroke-opacity:1; fill:none" points="1556.55,1486.45 1556.55,1467.55 "/>
<polyline clip-path="url(#clip040)" style="stroke:#000000; stroke-linecap:round; stroke-linejoin:round; stroke-width:4; stroke-opacity:1; fill:none" points="1850.19,1486.45 1850.19,1467.55 "/>
<polyline clip-path="url(#clip040)" style="stroke:#000000; stroke-linecap:round; stroke-linejoin:round; stroke-width:4; stroke-opacity:1; fill:none" points="2143.83,1486.45 2143.83,1467.55 "/>
<path clip-path="url(#clip040)" d="M331.387 1544.91 L347.707 1544.91 L347.707 1548.85 L325.762 1548.85 L325.762 1544.91 Q328.425 1542.16 333.008 1537.53 Q337.614 1532.88 338.795 1531.53 Q341.04 1529.01 341.92 1527.27 Q342.823 1525.51 342.823 1523.82 Q342.823 1521.07 340.878 1519.33 Q338.957 1517.6 335.855 1517.6 Q333.656 1517.6 331.202 1518.36 Q328.772 1519.13 325.994 1520.68 L325.994 1515.95 Q328.818 1514.82 331.272 1514.24 Q333.725 1513.66 335.762 1513.66 Q341.133 1513.66 344.327 1516.35 Q347.522 1519.03 347.522 1523.52 Q347.522 1525.65 346.711 1527.57 Q345.924 1529.47 343.818 1532.07 Q343.239 1532.74 340.137 1535.95 Q337.036 1539.15 331.387 1544.91 Z" fill="#000000" fill-rule="nonzero" fill-opacity="1" /><path clip-path="url(#clip040)" d="M368.1 1529.7 Q364.952 1529.7 363.1 1531.86 Q361.272 1534.01 361.272 1537.76 Q361.272 1541.49 363.1 1543.66 Q364.952 1545.82 368.1 1545.82 Q371.248 1545.82 373.077 1543.66 Q374.929 1541.49 374.929 1537.76 Q374.929 1534.01 373.077 1531.86 Q371.248 1529.7 368.1 1529.7 M377.383 1515.05 L377.383 1519.31 Q375.623 1518.48 373.818 1518.04 Q372.035 1517.6 370.276 1517.6 Q365.647 1517.6 363.193 1520.72 Q360.762 1523.85 360.415 1530.17 Q361.781 1528.15 363.841 1527.09 Q365.901 1526 368.378 1526 Q373.586 1526 376.596 1529.17 Q379.628 1532.32 379.628 1537.76 Q379.628 1543.08 376.48 1546.3 Q373.332 1549.52 368.1 1549.52 Q362.105 1549.52 358.934 1544.94 Q355.762 1540.33 355.762 1531.6 Q355.762 1523.41 359.651 1518.55 Q363.54 1513.66 370.091 1513.66 Q371.85 1513.66 373.633 1514.01 Q375.438 1514.36 377.383 1515.05 Z" fill="#000000" fill-rule="nonzero" fill-opacity="1" /><path clip-path="url(#clip040)" d="M388.494 1544.91 L396.132 1544.91 L396.132 1518.55 L387.822 1520.21 L387.822 1515.95 L396.086 1514.29 L400.762 1514.29 L400.762 1544.91 L408.401 1544.91 L408.401 1548.85 L388.494 1548.85 L388.494 1544.91 Z" fill="#000000" fill-rule="nonzero" fill-opacity="1" /><path clip-path="url(#clip040)" d="M421.873 1544.91 L438.192 1544.91 L438.192 1548.85 L416.248 1548.85 L416.248 1544.91 Q418.91 1542.16 423.493 1537.53 Q428.1 1532.88 429.28 1531.53 Q431.526 1529.01 432.405 1527.27 Q433.308 1525.51 433.308 1523.82 Q433.308 1521.07 431.364 1519.33 Q429.442 1517.6 426.341 1517.6 Q424.142 1517.6 421.688 1518.36 Q419.257 1519.13 416.48 1520.68 L416.48 1515.95 Q419.304 1514.82 421.757 1514.24 Q424.211 1513.66 426.248 1513.66 Q431.618 1513.66 434.813 1516.35 Q438.007 1519.03 438.007 1523.52 Q438.007 1525.65 437.197 1527.57 Q436.41 1529.47 434.304 1532.07 Q433.725 1532.74 430.623 1535.95 Q427.521 1539.15 421.873 1544.91 Z" fill="#000000" fill-rule="nonzero" fill-opacity="1" /><path clip-path="url(#clip040)" d="M623.988 1544.91 L640.307 1544.91 L640.307 1548.85 L618.363 1548.85 L618.363 1544.91 Q621.025 1542.16 625.608 1537.53 Q630.215 1532.88 631.395 1531.53 Q633.641 1529.01 634.52 1527.27 Q635.423 1525.51 635.423 1523.82 Q635.423 1521.07 633.479 1519.33 Q631.557 1517.6 628.455 1517.6 Q626.256 1517.6 623.803 1518.36 Q621.372 1519.13 618.594 1520.68 L618.594 1515.95 Q621.418 1514.82 623.872 1514.24 Q626.326 1513.66 628.363 1513.66 Q633.733 1513.66 636.928 1516.35 Q640.122 1519.03 640.122 1523.52 Q640.122 1525.65 639.312 1527.57 Q638.525 1529.47 636.418 1532.07 Q635.84 1532.74 632.738 1535.95 Q629.636 1539.15 623.988 1544.91 Z" fill="#000000" fill-rule="nonzero" fill-opacity="1" /><path clip-path="url(#clip040)" d="M660.701 1529.7 Q657.552 1529.7 655.701 1531.86 Q653.872 1534.01 653.872 1537.76 Q653.872 1541.49 655.701 1543.66 Q657.552 1545.82 660.701 1545.82 Q663.849 1545.82 665.677 1543.66 Q667.529 1541.49 667.529 1537.76 Q667.529 1534.01 665.677 1531.86 Q663.849 1529.7 660.701 1529.7 M669.983 1515.05 L669.983 1519.31 Q668.224 1518.48 666.418 1518.04 Q664.636 1517.6 662.876 1517.6 Q658.247 1517.6 655.793 1520.72 Q653.363 1523.85 653.015 1530.17 Q654.381 1528.15 656.441 1527.09 Q658.502 1526 660.978 1526 Q666.187 1526 669.196 1529.17 Q672.228 1532.32 672.228 1537.76 Q672.228 1543.08 669.08 1546.3 Q665.932 1549.52 660.701 1549.52 Q654.705 1549.52 651.534 1544.94 Q648.363 1540.33 648.363 1531.6 Q648.363 1523.41 652.252 1518.55 Q656.14 1513.66 662.691 1513.66 Q664.451 1513.66 666.233 1514.01 Q668.039 1514.36 669.983 1515.05 Z" fill="#000000" fill-rule="nonzero" fill-opacity="1" /><path clip-path="url(#clip040)" d="M681.094 1544.91 L688.733 1544.91 L688.733 1518.55 L680.423 1520.21 L680.423 1515.95 L688.687 1514.29 L693.362 1514.29 L693.362 1544.91 L701.001 1544.91 L701.001 1548.85 L681.094 1548.85 L681.094 1544.91 Z" fill="#000000" fill-rule="nonzero" fill-opacity="1" /><path clip-path="url(#clip040)" d="M723.293 1518.36 L711.487 1536.81 L723.293 1536.81 L723.293 1518.36 M722.066 1514.29 L727.946 1514.29 L727.946 1536.81 L732.876 1536.81 L732.876 1540.7 L727.946 1540.7 L727.946 1548.85 L723.293 1548.85 L723.293 1540.7 L707.691 1540.7 L707.691 1536.19 L722.066 1514.29 Z" fill="#000000" fill-rule="nonzero" fill-opacity="1" /><path clip-path="url(#clip040)" d="M917.792 1544.91 L934.111 1544.91 L934.111 1548.85 L912.167 1548.85 L912.167 1544.91 Q914.829 1542.16 919.412 1537.53 Q924.019 1532.88 925.199 1531.53 Q927.445 1529.01 928.324 1527.27 Q929.227 1525.51 929.227 1523.82 Q929.227 1521.07 927.283 1519.33 Q925.361 1517.6 922.259 1517.6 Q920.06 1517.6 917.607 1518.36 Q915.176 1519.13 912.398 1520.68 L912.398 1515.95 Q915.222 1514.82 917.676 1514.24 Q920.13 1513.66 922.167 1513.66 Q927.537 1513.66 930.732 1516.35 Q933.926 1519.03 933.926 1523.52 Q933.926 1525.65 933.116 1527.57 Q932.329 1529.47 930.222 1532.07 Q929.644 1532.74 926.542 1535.95 Q923.44 1539.15 917.792 1544.91 Z" fill="#000000" fill-rule="nonzero" fill-opacity="1" /><path clip-path="url(#clip040)" d="M954.505 1529.7 Q951.357 1529.7 949.505 1531.86 Q947.676 1534.01 947.676 1537.76 Q947.676 1541.49 949.505 1543.66 Q951.357 1545.82 954.505 1545.82 Q957.653 1545.82 959.481 1543.66 Q961.333 1541.49 961.333 1537.76 Q961.333 1534.01 959.481 1531.86 Q957.653 1529.7 954.505 1529.7 M963.787 1515.05 L963.787 1519.31 Q962.028 1518.48 960.222 1518.04 Q958.44 1517.6 956.681 1517.6 Q952.051 1517.6 949.597 1520.72 Q947.167 1523.85 946.819 1530.17 Q948.185 1528.15 950.245 1527.09 Q952.306 1526 954.782 1526 Q959.991 1526 963 1529.17 Q966.032 1532.32 966.032 1537.76 Q966.032 1543.08 962.884 1546.3 Q959.736 1549.52 954.505 1549.52 Q948.509 1549.52 945.338 1544.94 Q942.167 1540.33 942.167 1531.6 Q942.167 1523.41 946.056 1518.55 Q949.944 1513.66 956.495 1513.66 Q958.255 1513.66 960.037 1514.01 Q961.843 1514.36 963.787 1515.05 Z" fill="#000000" fill-rule="nonzero" fill-opacity="1" /><path clip-path="url(#clip040)" d="M974.898 1544.91 L982.537 1544.91 L982.537 1518.55 L974.227 1520.21 L974.227 1515.95 L982.491 1514.29 L987.167 1514.29 L987.167 1544.91 L994.805 1544.91 L994.805 1548.85 L974.898 1548.85 L974.898 1544.91 Z" fill="#000000" fill-rule="nonzero" fill-opacity="1" /><path clip-path="url(#clip040)" d="M1014.83 1529.7 Q1011.68 1529.7 1009.83 1531.86 Q1008 1534.01 1008 1537.76 Q1008 1541.49 1009.83 1543.66 Q1011.68 1545.82 1014.83 1545.82 Q1017.98 1545.82 1019.81 1543.66 Q1021.66 1541.49 1021.66 1537.76 Q1021.66 1534.01 1019.81 1531.86 Q1017.98 1529.7 1014.83 1529.7 M1024.11 1515.05 L1024.11 1519.31 Q1022.35 1518.48 1020.55 1518.04 Q1018.76 1517.6 1017 1517.6 Q1012.37 1517.6 1009.92 1520.72 Q1007.49 1523.85 1007.14 1530.17 Q1008.51 1528.15 1010.57 1527.09 Q1012.63 1526 1015.11 1526 Q1020.31 1526 1023.32 1529.17 Q1026.36 1532.32 1026.36 1537.76 Q1026.36 1543.08 1023.21 1546.3 Q1020.06 1549.52 1014.83 1549.52 Q1008.83 1549.52 1005.66 1544.94 Q1002.49 1540.33 1002.49 1531.6 Q1002.49 1523.41 1006.38 1518.55 Q1010.27 1513.66 1016.82 1513.66 Q1018.58 1513.66 1020.36 1514.01 Q1022.17 1514.36 1024.11 1515.05 Z" fill="#000000" fill-rule="nonzero" fill-opacity="1" /><path clip-path="url(#clip040)" d="M1211.56 1544.91 L1227.88 1544.91 L1227.88 1548.85 L1205.94 1548.85 L1205.94 1544.91 Q1208.6 1542.16 1213.18 1537.53 Q1217.79 1532.88 1218.97 1531.53 Q1221.21 1529.01 1222.09 1527.27 Q1223 1525.51 1223 1523.82 Q1223 1521.07 1221.05 1519.33 Q1219.13 1517.6 1216.03 1517.6 Q1213.83 1517.6 1211.38 1518.36 Q1208.95 1519.13 1206.17 1520.68 L1206.17 1515.95 Q1208.99 1514.82 1211.45 1514.24 Q1213.9 1513.66 1215.94 1513.66 Q1221.31 1513.66 1224.5 1516.35 Q1227.7 1519.03 1227.7 1523.52 Q1227.7 1525.65 1226.89 1527.57 Q1226.1 1529.47 1223.99 1532.07 Q1223.41 1532.74 1220.31 1535.95 Q1217.21 1539.15 1211.56 1544.91 Z" fill="#000000" fill-rule="nonzero" fill-opacity="1" /><path clip-path="url(#clip040)" d="M1248.27 1529.7 Q1245.13 1529.7 1243.27 1531.86 Q1241.45 1534.01 1241.45 1537.76 Q1241.45 1541.49 1243.27 1543.66 Q1245.13 1545.82 1248.27 1545.82 Q1251.42 1545.82 1253.25 1543.66 Q1255.1 1541.49 1255.1 1537.76 Q1255.1 1534.01 1253.25 1531.86 Q1251.42 1529.7 1248.27 1529.7 M1257.56 1515.05 L1257.56 1519.31 Q1255.8 1518.48 1253.99 1518.04 Q1252.21 1517.6 1250.45 1517.6 Q1245.82 1517.6 1243.37 1520.72 Q1240.94 1523.85 1240.59 1530.17 Q1241.95 1528.15 1244.01 1527.09 Q1246.07 1526 1248.55 1526 Q1253.76 1526 1256.77 1529.17 Q1259.8 1532.32 1259.8 1537.76 Q1259.8 1543.08 1256.65 1546.3 Q1253.51 1549.52 1248.27 1549.52 Q1242.28 1549.52 1239.11 1544.94 Q1235.94 1540.33 1235.94 1531.6 Q1235.94 1523.41 1239.82 1518.55 Q1243.71 1513.66 1250.26 1513.66 Q1252.02 1513.66 1253.81 1514.01 Q1255.61 1514.36 1257.56 1515.05 Z" fill="#000000" fill-rule="nonzero" fill-opacity="1" /><path clip-path="url(#clip040)" d="M1268.67 1544.91 L1276.31 1544.91 L1276.31 1518.55 L1268 1520.21 L1268 1515.95 L1276.26 1514.29 L1280.94 1514.29 L1280.94 1544.91 L1288.57 1544.91 L1288.57 1548.85 L1268.67 1548.85 L1268.67 1544.91 Z" fill="#000000" fill-rule="nonzero" fill-opacity="1" /><path clip-path="url(#clip040)" d="M1308.02 1532.44 Q1304.69 1532.44 1302.76 1534.22 Q1300.87 1536 1300.87 1539.13 Q1300.87 1542.25 1302.76 1544.03 Q1304.69 1545.82 1308.02 1545.82 Q1311.35 1545.82 1313.27 1544.03 Q1315.19 1542.23 1315.19 1539.13 Q1315.19 1536 1313.27 1534.22 Q1311.38 1532.44 1308.02 1532.44 M1303.34 1530.45 Q1300.33 1529.7 1298.64 1527.64 Q1296.98 1525.58 1296.98 1522.62 Q1296.98 1518.48 1299.92 1516.07 Q1302.88 1513.66 1308.02 1513.66 Q1313.18 1513.66 1316.12 1516.07 Q1319.06 1518.48 1319.06 1522.62 Q1319.06 1525.58 1317.37 1527.64 Q1315.7 1529.7 1312.72 1530.45 Q1316.1 1531.23 1317.97 1533.52 Q1319.87 1535.82 1319.87 1539.13 Q1319.87 1544.15 1316.79 1546.83 Q1313.74 1549.52 1308.02 1549.52 Q1302.3 1549.52 1299.22 1546.83 Q1296.17 1544.15 1296.17 1539.13 Q1296.17 1535.82 1298.07 1533.52 Q1299.96 1531.23 1303.34 1530.45 M1301.63 1523.06 Q1301.63 1525.75 1303.3 1527.25 Q1304.99 1528.76 1308.02 1528.76 Q1311.03 1528.76 1312.72 1527.25 Q1314.43 1525.75 1314.43 1523.06 Q1314.43 1520.38 1312.72 1518.87 Q1311.03 1517.37 1308.02 1517.37 Q1304.99 1517.37 1303.3 1518.87 Q1301.63 1520.38 1301.63 1523.06 Z" fill="#000000" fill-rule="nonzero" fill-opacity="1" /><path clip-path="url(#clip040)" d="M1505.16 1544.91 L1521.48 1544.91 L1521.48 1548.85 L1499.53 1548.85 L1499.53 1544.91 Q1502.19 1542.16 1506.78 1537.53 Q1511.38 1532.88 1512.56 1531.53 Q1514.81 1529.01 1515.69 1527.27 Q1516.59 1525.51 1516.59 1523.82 Q1516.59 1521.07 1514.65 1519.33 Q1512.73 1517.6 1509.62 1517.6 Q1507.43 1517.6 1504.97 1518.36 Q1502.54 1519.13 1499.76 1520.68 L1499.76 1515.95 Q1502.59 1514.82 1505.04 1514.24 Q1507.49 1513.66 1509.53 1513.66 Q1514.9 1513.66 1518.1 1516.35 Q1521.29 1519.03 1521.29 1523.52 Q1521.29 1525.65 1520.48 1527.57 Q1519.69 1529.47 1517.59 1532.07 Q1517.01 1532.74 1513.91 1535.95 Q1510.81 1539.15 1505.16 1544.91 Z" fill="#000000" fill-rule="nonzero" fill-opacity="1" /><path clip-path="url(#clip040)" d="M1541.87 1529.7 Q1538.72 1529.7 1536.87 1531.86 Q1535.04 1534.01 1535.04 1537.76 Q1535.04 1541.49 1536.87 1543.66 Q1538.72 1545.82 1541.87 1545.82 Q1545.02 1545.82 1546.85 1543.66 Q1548.7 1541.49 1548.7 1537.76 Q1548.7 1534.01 1546.85 1531.86 Q1545.02 1529.7 1541.87 1529.7 M1551.15 1515.05 L1551.15 1519.31 Q1549.39 1518.48 1547.59 1518.04 Q1545.8 1517.6 1544.05 1517.6 Q1539.42 1517.6 1536.96 1520.72 Q1534.53 1523.85 1534.18 1530.17 Q1535.55 1528.15 1537.61 1527.09 Q1539.67 1526 1542.15 1526 Q1547.36 1526 1550.37 1529.17 Q1553.4 1532.32 1553.4 1537.76 Q1553.4 1543.08 1550.25 1546.3 Q1547.1 1549.52 1541.87 1549.52 Q1535.87 1549.52 1532.7 1544.94 Q1529.53 1540.33 1529.53 1531.6 Q1529.53 1523.41 1533.42 1518.55 Q1537.31 1513.66 1543.86 1513.66 Q1545.62 1513.66 1547.4 1514.01 Q1549.21 1514.36 1551.15 1515.05 Z" fill="#000000" fill-rule="nonzero" fill-opacity="1" /><path clip-path="url(#clip040)" d="M1565.48 1544.91 L1581.8 1544.91 L1581.8 1548.85 L1559.86 1548.85 L1559.86 1544.91 Q1562.52 1542.16 1567.1 1537.53 Q1571.71 1532.88 1572.89 1531.53 Q1575.13 1529.01 1576.01 1527.27 Q1576.92 1525.51 1576.92 1523.82 Q1576.92 1521.07 1574.97 1519.33 Q1573.05 1517.6 1569.95 1517.6 Q1567.75 1517.6 1565.3 1518.36 Q1562.86 1519.13 1560.09 1520.68 L1560.09 1515.95 Q1562.91 1514.82 1565.36 1514.24 Q1567.82 1513.66 1569.86 1513.66 Q1575.23 1513.66 1578.42 1516.35 Q1581.61 1519.03 1581.61 1523.52 Q1581.61 1525.65 1580.8 1527.57 Q1580.02 1529.47 1577.91 1532.07 Q1577.33 1532.74 1574.23 1535.95 Q1571.13 1539.15 1565.48 1544.91 Z" fill="#000000" fill-rule="nonzero" fill-opacity="1" /><path clip-path="url(#clip040)" d="M1601.61 1517.37 Q1598 1517.37 1596.17 1520.93 Q1594.37 1524.47 1594.37 1531.6 Q1594.37 1538.71 1596.17 1542.27 Q1598 1545.82 1601.61 1545.82 Q1605.25 1545.82 1607.05 1542.27 Q1608.88 1538.71 1608.88 1531.6 Q1608.88 1524.47 1607.05 1520.93 Q1605.25 1517.37 1601.61 1517.37 M1601.61 1513.66 Q1607.42 1513.66 1610.48 1518.27 Q1613.56 1522.85 1613.56 1531.6 Q1613.56 1540.33 1610.48 1544.94 Q1607.42 1549.52 1601.61 1549.52 Q1595.8 1549.52 1592.73 1544.94 Q1589.67 1540.33 1589.67 1531.6 Q1589.67 1522.85 1592.73 1518.27 Q1595.8 1513.66 1601.61 1513.66 Z" fill="#000000" fill-rule="nonzero" fill-opacity="1" /><path clip-path="url(#clip040)" d="M1799.6 1544.91 L1815.92 1544.91 L1815.92 1548.85 L1793.97 1548.85 L1793.97 1544.91 Q1796.63 1542.16 1801.22 1537.53 Q1805.82 1532.88 1807 1531.53 Q1809.25 1529.01 1810.13 1527.27 Q1811.03 1525.51 1811.03 1523.82 Q1811.03 1521.07 1809.09 1519.33 Q1807.17 1517.6 1804.07 1517.6 Q1801.87 1517.6 1799.41 1518.36 Q1796.98 1519.13 1794.2 1520.68 L1794.2 1515.95 Q1797.03 1514.82 1799.48 1514.24 Q1801.94 1513.66 1803.97 1513.66 Q1809.34 1513.66 1812.54 1516.35 Q1815.73 1519.03 1815.73 1523.52 Q1815.73 1525.65 1814.92 1527.57 Q1814.13 1529.47 1812.03 1532.07 Q1811.45 1532.74 1808.35 1535.95 Q1805.25 1539.15 1799.6 1544.91 Z" fill="#000000" fill-rule="nonzero" fill-opacity="1" /><path clip-path="url(#clip040)" d="M1836.31 1529.7 Q1833.16 1529.7 1831.31 1531.86 Q1829.48 1534.01 1829.48 1537.76 Q1829.48 1541.49 1831.31 1543.66 Q1833.16 1545.82 1836.31 1545.82 Q1839.46 1545.82 1841.29 1543.66 Q1843.14 1541.49 1843.14 1537.76 Q1843.14 1534.01 1841.29 1531.86 Q1839.46 1529.7 1836.31 1529.7 M1845.59 1515.05 L1845.59 1519.31 Q1843.83 1518.48 1842.03 1518.04 Q1840.25 1517.6 1838.49 1517.6 Q1833.86 1517.6 1831.4 1520.72 Q1828.97 1523.85 1828.63 1530.17 Q1829.99 1528.15 1832.05 1527.09 Q1834.11 1526 1836.59 1526 Q1841.8 1526 1844.81 1529.17 Q1847.84 1532.32 1847.84 1537.76 Q1847.84 1543.08 1844.69 1546.3 Q1841.54 1549.52 1836.31 1549.52 Q1830.32 1549.52 1827.14 1544.94 Q1823.97 1540.33 1823.97 1531.6 Q1823.97 1523.41 1827.86 1518.55 Q1831.75 1513.66 1838.3 1513.66 Q1840.06 1513.66 1841.84 1514.01 Q1843.65 1514.36 1845.59 1515.05 Z" fill="#000000" fill-rule="nonzero" fill-opacity="1" /><path clip-path="url(#clip040)" d="M1859.92 1544.91 L1876.24 1544.91 L1876.24 1548.85 L1854.3 1548.85 L1854.3 1544.91 Q1856.96 1542.16 1861.54 1537.53 Q1866.15 1532.88 1867.33 1531.53 Q1869.57 1529.01 1870.45 1527.27 Q1871.36 1525.51 1871.36 1523.82 Q1871.36 1521.07 1869.41 1519.33 Q1867.49 1517.6 1864.39 1517.6 Q1862.19 1517.6 1859.74 1518.36 Q1857.31 1519.13 1854.53 1520.68 L1854.53 1515.95 Q1857.35 1514.82 1859.81 1514.24 Q1862.26 1513.66 1864.3 1513.66 Q1869.67 1513.66 1872.86 1516.35 Q1876.06 1519.03 1876.06 1523.52 Q1876.06 1525.65 1875.25 1527.57 Q1874.46 1529.47 1872.35 1532.07 Q1871.77 1532.74 1868.67 1535.95 Q1865.57 1539.15 1859.92 1544.91 Z" fill="#000000" fill-rule="nonzero" fill-opacity="1" /><path clip-path="url(#clip040)" d="M1890.08 1544.91 L1906.4 1544.91 L1906.4 1548.85 L1884.46 1548.85 L1884.46 1544.91 Q1887.12 1542.16 1891.7 1537.53 Q1896.31 1532.88 1897.49 1531.53 Q1899.74 1529.01 1900.62 1527.27 Q1901.52 1525.51 1901.52 1523.82 Q1901.52 1521.07 1899.57 1519.33 Q1897.65 1517.6 1894.55 1517.6 Q1892.35 1517.6 1889.9 1518.36 Q1887.47 1519.13 1884.69 1520.68 L1884.69 1515.95 Q1887.51 1514.82 1889.97 1514.24 Q1892.42 1513.66 1894.46 1513.66 Q1899.83 1513.66 1903.02 1516.35 Q1906.22 1519.03 1906.22 1523.52 Q1906.22 1525.65 1905.41 1527.57 Q1904.62 1529.47 1902.51 1532.07 Q1901.93 1532.74 1898.83 1535.95 Q1895.73 1539.15 1890.08 1544.91 Z" fill="#000000" fill-rule="nonzero" fill-opacity="1" /><path clip-path="url(#clip040)" d="M2092.2 1544.91 L2108.52 1544.91 L2108.52 1548.85 L2086.57 1548.85 L2086.57 1544.91 Q2089.23 1542.16 2093.82 1537.53 Q2098.42 1532.88 2099.61 1531.53 Q2101.85 1529.01 2102.73 1527.27 Q2103.63 1525.51 2103.63 1523.82 Q2103.63 1521.07 2101.69 1519.33 Q2099.77 1517.6 2096.67 1517.6 Q2094.47 1517.6 2092.01 1518.36 Q2089.58 1519.13 2086.8 1520.68 L2086.8 1515.95 Q2089.63 1514.82 2092.08 1514.24 Q2094.54 1513.66 2096.57 1513.66 Q2101.94 1513.66 2105.14 1516.35 Q2108.33 1519.03 2108.33 1523.52 Q2108.33 1525.65 2107.52 1527.57 Q2106.73 1529.47 2104.63 1532.07 Q2104.05 1532.74 2100.95 1535.95 Q2097.85 1539.15 2092.2 1544.91 Z" fill="#000000" fill-rule="nonzero" fill-opacity="1" /><path clip-path="url(#clip040)" d="M2128.91 1529.7 Q2125.76 1529.7 2123.91 1531.86 Q2122.08 1534.01 2122.08 1537.76 Q2122.08 1541.49 2123.91 1543.66 Q2125.76 1545.82 2128.91 1545.82 Q2132.06 1545.82 2133.89 1543.66 Q2135.74 1541.49 2135.74 1537.76 Q2135.74 1534.01 2133.89 1531.86 Q2132.06 1529.7 2128.91 1529.7 M2138.19 1515.05 L2138.19 1519.31 Q2136.43 1518.48 2134.63 1518.04 Q2132.85 1517.6 2131.09 1517.6 Q2126.46 1517.6 2124 1520.72 Q2121.57 1523.85 2121.23 1530.17 Q2122.59 1528.15 2124.65 1527.09 Q2126.71 1526 2129.19 1526 Q2134.4 1526 2137.41 1529.17 Q2140.44 1532.32 2140.44 1537.76 Q2140.44 1543.08 2137.29 1546.3 Q2134.14 1549.52 2128.91 1549.52 Q2122.92 1549.52 2119.74 1544.94 Q2116.57 1540.33 2116.57 1531.6 Q2116.57 1523.41 2120.46 1518.55 Q2124.35 1513.66 2130.9 1513.66 Q2132.66 1513.66 2134.44 1514.01 Q2136.25 1514.36 2138.19 1515.05 Z" fill="#000000" fill-rule="nonzero" fill-opacity="1" /><path clip-path="url(#clip040)" d="M2152.52 1544.91 L2168.84 1544.91 L2168.84 1548.85 L2146.9 1548.85 L2146.9 1544.91 Q2149.56 1542.16 2154.14 1537.53 Q2158.75 1532.88 2159.93 1531.53 Q2162.17 1529.01 2163.05 1527.27 Q2163.96 1525.51 2163.96 1523.82 Q2163.96 1521.07 2162.01 1519.33 Q2160.09 1517.6 2156.99 1517.6 Q2154.79 1517.6 2152.34 1518.36 Q2149.91 1519.13 2147.13 1520.68 L2147.13 1515.95 Q2149.95 1514.82 2152.41 1514.24 Q2154.86 1513.66 2156.9 1513.66 Q2162.27 1513.66 2165.46 1516.35 Q2168.66 1519.03 2168.66 1523.52 Q2168.66 1525.65 2167.85 1527.57 Q2167.06 1529.47 2164.95 1532.07 Q2164.37 1532.74 2161.27 1535.95 Q2158.17 1539.15 2152.52 1544.91 Z" fill="#000000" fill-rule="nonzero" fill-opacity="1" /><path clip-path="url(#clip040)" d="M2191.5 1518.36 L2179.7 1536.81 L2191.5 1536.81 L2191.5 1518.36 M2190.28 1514.29 L2196.16 1514.29 L2196.16 1536.81 L2201.09 1536.81 L2201.09 1540.7 L2196.16 1540.7 L2196.16 1548.85 L2191.5 1548.85 L2191.5 1540.7 L2175.9 1540.7 L2175.9 1536.19 L2190.28 1514.29 Z" fill="#000000" fill-rule="nonzero" fill-opacity="1" /><polyline clip-path="url(#clip042)" style="stroke:#000000; stroke-linecap:round; stroke-linejoin:round; stroke-width:2; stroke-opacity:0.1; fill:none" points="158.369,1445.72 2352.76,1445.72 "/>
<polyline clip-path="url(#clip042)" style="stroke:#000000; stroke-linecap:round; stroke-linejoin:round; stroke-width:2; stroke-opacity:0.1; fill:none" points="158.369,905.189 2352.76,905.189 "/>
<polyline clip-path="url(#clip042)" style="stroke:#000000; stroke-linecap:round; stroke-linejoin:round; stroke-width:2; stroke-opacity:0.1; fill:none" points="158.369,364.663 2352.76,364.663 "/>
<polyline clip-path="url(#clip040)" style="stroke:#000000; stroke-linecap:round; stroke-linejoin:round; stroke-width:4; stroke-opacity:1; fill:none" points="158.369,1486.45 158.369,47.2441 "/>
<polyline clip-path="url(#clip040)" style="stroke:#000000; stroke-linecap:round; stroke-linejoin:round; stroke-width:4; stroke-opacity:1; fill:none" points="158.369,1445.72 177.267,1445.72 "/>
<polyline clip-path="url(#clip040)" style="stroke:#000000; stroke-linecap:round; stroke-linejoin:round; stroke-width:4; stroke-opacity:1; fill:none" points="158.369,905.189 177.267,905.189 "/>
<polyline clip-path="url(#clip040)" style="stroke:#000000; stroke-linecap:round; stroke-linejoin:round; stroke-width:4; stroke-opacity:1; fill:none" points="158.369,364.663 177.267,364.663 "/>
<path clip-path="url(#clip040)" d="M51.6634 1465.51 L59.3023 1465.51 L59.3023 1439.14 L50.9921 1440.81 L50.9921 1436.55 L59.256 1434.88 L63.9319 1434.88 L63.9319 1465.51 L71.5707 1465.51 L71.5707 1469.44 L51.6634 1469.44 L51.6634 1465.51 Z" fill="#000000" fill-rule="nonzero" fill-opacity="1" /><path clip-path="url(#clip040)" d="M91.0151 1437.96 Q87.404 1437.96 85.5753 1441.53 Q83.7697 1445.07 83.7697 1452.2 Q83.7697 1459.3 85.5753 1462.87 Q87.404 1466.41 91.0151 1466.41 Q94.6493 1466.41 96.4548 1462.87 Q98.2835 1459.3 98.2835 1452.2 Q98.2835 1445.07 96.4548 1441.53 Q94.6493 1437.96 91.0151 1437.96 M91.0151 1434.26 Q96.8252 1434.26 99.8808 1438.86 Q102.959 1443.45 102.959 1452.2 Q102.959 1460.92 99.8808 1465.53 Q96.8252 1470.11 91.0151 1470.11 Q85.2049 1470.11 82.1262 1465.53 Q79.0707 1460.92 79.0707 1452.2 Q79.0707 1443.45 82.1262 1438.86 Q85.2049 1434.26 91.0151 1434.26 Z" fill="#000000" fill-rule="nonzero" fill-opacity="1" /><path clip-path="url(#clip040)" d="M112.664 1416.45 Q109.73 1416.45 108.244 1419.35 Q106.777 1422.23 106.777 1428.02 Q106.777 1433.8 108.244 1436.69 Q109.73 1439.57 112.664 1439.57 Q115.617 1439.57 117.084 1436.69 Q118.57 1433.8 118.57 1428.02 Q118.57 1422.23 117.084 1419.35 Q115.617 1416.45 112.664 1416.45 M112.664 1413.45 Q117.385 1413.45 119.868 1417.19 Q122.369 1420.91 122.369 1428.02 Q122.369 1435.11 119.868 1438.85 Q117.385 1442.58 112.664 1442.58 Q107.943 1442.58 105.442 1438.85 Q102.959 1435.11 102.959 1428.02 Q102.959 1420.91 105.442 1417.19 Q107.943 1413.45 112.664 1413.45 Z" fill="#000000" fill-rule="nonzero" fill-opacity="1" /><path clip-path="url(#clip040)" d="M54.3529 924.982 L61.9918 924.982 L61.9918 898.616 L53.6816 900.283 L53.6816 896.023 L61.9455 894.357 L66.6214 894.357 L66.6214 924.982 L74.2602 924.982 L74.2602 928.917 L54.3529 928.917 L54.3529 924.982 Z" fill="#000000" fill-rule="nonzero" fill-opacity="1" /><path clip-path="url(#clip040)" d="M93.7046 897.436 Q90.0935 897.436 88.2648 901 Q86.4592 904.542 86.4592 911.672 Q86.4592 918.778 88.2648 922.343 Q90.0935 925.884 93.7046 925.884 Q97.3388 925.884 99.1444 922.343 Q100.973 918.778 100.973 911.672 Q100.973 904.542 99.1444 901 Q97.3388 897.436 93.7046 897.436 M93.7046 893.732 Q99.5147 893.732 102.57 898.338 Q105.649 902.922 105.649 911.672 Q105.649 920.398 102.57 925.005 Q99.5147 929.588 93.7046 929.588 Q87.8944 929.588 84.8157 925.005 Q81.7602 920.398 81.7602 911.672 Q81.7602 902.922 84.8157 898.338 Q87.8944 893.732 93.7046 893.732 Z" fill="#000000" fill-rule="nonzero" fill-opacity="1" /><path clip-path="url(#clip040)" d="M106.194 898.309 L112.401 898.309 L112.401 876.887 L105.649 878.241 L105.649 874.781 L112.363 873.426 L116.162 873.426 L116.162 898.309 L122.369 898.309 L122.369 901.506 L106.194 901.506 L106.194 898.309 Z" fill="#000000" fill-rule="nonzero" fill-opacity="1" /><path clip-path="url(#clip040)" d="M53.2433 384.455 L60.8821 384.455 L60.8821 358.09 L52.572 359.756 L52.572 355.497 L60.8358 353.83 L65.5117 353.83 L65.5117 384.455 L73.1506 384.455 L73.1506 388.39 L53.2433 388.39 L53.2433 384.455 Z" fill="#000000" fill-rule="nonzero" fill-opacity="1" /><path clip-path="url(#clip040)" d="M92.5949 356.909 Q88.9838 356.909 87.1551 360.474 Q85.3496 364.016 85.3496 371.145 Q85.3496 378.252 87.1551 381.816 Q88.9838 385.358 92.5949 385.358 Q96.2292 385.358 98.0347 381.816 Q99.8634 378.252 99.8634 371.145 Q99.8634 364.016 98.0347 360.474 Q96.2292 356.909 92.5949 356.909 M92.5949 353.205 Q98.4051 353.205 101.461 357.812 Q104.539 362.395 104.539 371.145 Q104.539 379.872 101.461 384.478 Q98.4051 389.062 92.5949 389.062 Q86.7848 389.062 83.7061 384.478 Q80.6505 379.872 80.6505 371.145 Q80.6505 362.395 83.7061 357.812 Q86.7848 353.205 92.5949 353.205 Z" fill="#000000" fill-rule="nonzero" fill-opacity="1" /><path clip-path="url(#clip040)" d="M109.11 357.783 L122.369 357.783 L122.369 360.98 L104.539 360.98 L104.539 357.783 Q106.702 355.545 110.426 351.783 Q114.169 348.003 115.128 346.912 Q116.952 344.862 117.667 343.451 Q118.401 342.022 118.401 340.649 Q118.401 338.411 116.821 337 Q115.26 335.589 112.739 335.589 Q110.953 335.589 108.959 336.21 Q106.984 336.831 104.727 338.091 L104.727 334.254 Q107.022 333.333 109.016 332.862 Q111.009 332.392 112.664 332.392 Q117.028 332.392 119.623 334.574 Q122.219 336.756 122.219 340.404 Q122.219 342.135 121.56 343.696 Q120.921 345.238 119.209 347.344 Q118.739 347.89 116.219 350.504 Q113.699 353.1 109.11 357.783 Z" fill="#000000" fill-rule="nonzero" fill-opacity="1" /><polyline clip-path="url(#clip042)" style="stroke:#009af9; stroke-linecap:round; stroke-linejoin:round; stroke-width:4; stroke-opacity:1; fill:none" points="704.984,1445.72 704.984,1445.72 719.666,1445.72 "/>
<polyline clip-path="url(#clip042)" style="stroke:#009af9; stroke-linecap:round; stroke-linejoin:round; stroke-width:4; stroke-opacity:1; fill:none" points="734.348,1445.72 734.348,905.189 749.03,905.189 749.03,87.9763 763.712,87.9763 763.712,1445.72 "/>
<polyline clip-path="url(#clip042)" style="stroke:#e26f46; stroke-linecap:round; stroke-linejoin:round; stroke-width:4; stroke-opacity:1; fill:none" points="220.474,1445.72 220.474,1445.72 235.156,1445.72 "/>
<polyline clip-path="url(#clip042)" style="stroke:#e26f46; stroke-linecap:round; stroke-linejoin:round; stroke-width:4; stroke-opacity:1; fill:none" points="293.885,1445.72 293.885,1445.72 308.567,1445.72 "/>
<polyline clip-path="url(#clip042)" style="stroke:#e26f46; stroke-linecap:round; stroke-linejoin:round; stroke-width:4; stroke-opacity:1; fill:none" points="367.295,1445.72 367.295,1283 381.977,1283 381.977,1445.72 396.66,1445.72 "/>
<polyline clip-path="url(#clip042)" style="stroke:#e26f46; stroke-linecap:round; stroke-linejoin:round; stroke-width:4; stroke-opacity:1; fill:none" points="411.342,1445.72 411.342,1120.29 426.024,1120.29 426.024,1283 440.706,1283 440.706,1187.82 455.388,1187.82 455.388,1283 470.07,1283 484.752,1283 484.752,1445.72 499.434,1445.72 499.434,1120.29 514.116,1120.29 528.798,1120.29 528.798,1187.82 543.481,1187.82 558.163,1187.82 558.163,957.572 572.845,957.572 572.845,988.918 587.527,988.918 587.527,1067.9 602.209,1067.9 602.209,905.189 616.891,905.189 631.573,905.189 631.573,988.918 646.255,988.918 646.255,957.572 660.937,957.572 660.937,929.922 675.619,929.922 675.619,810.007 690.302,810.007 690.302,794.857 704.984,794.857 704.984,826.203 719.666,826.203 719.666,810.007 734.348,810.007 734.348,862.39 749.03,862.39 749.03,957.572 763.712,957.572 763.712,731.021 778.394,731.021 778.394,810.007 793.076,810.007 793.076,794.857 807.758,794.857 807.758,826.203 822.44,826.203 822.44,988.918 837.123,988.918 837.123,882.815 851.805,882.815 851.805,905.189 866.487,905.189 866.487,1025.1 881.169,1025.1 881.169,882.815 895.851,882.815 895.851,1187.82 910.533,1187.82 910.533,957.572 925.215,957.572 925.215,843.6 939.897,843.6 939.897,1187.82 954.579,1187.82 954.579,1445.72 969.262,1445.72 969.262,1283 983.944,1283 983.944,1120.29 998.626,1120.29 998.626,1445.72 1013.31,1445.72 1013.31,1187.82 1027.99,1187.82 1027.99,1283 1042.67,1283 1057.35,1283 1072.04,1283 1072.04,1445.72 "/>
<polyline clip-path="url(#clip042)" style="stroke:#e26f46; stroke-linecap:round; stroke-linejoin:round; stroke-width:4; stroke-opacity:1; fill:none" points="1086.72,1445.72 1086.72,1445.72 1101.4,1445.72 1116.08,1445.72 1116.08,1283 1130.76,1283 1130.76,1445.72 "/>
<path clip-path="url(#clip040)" d="M1696.86 250.738 L2279.61 250.738 L2279.61 95.2176 L1696.86 95.2176  Z" fill="#ffffff" fill-rule="evenodd" fill-opacity="1"/>
<polyline clip-path="url(#clip040)" style="stroke:#000000; stroke-linecap:round; stroke-linejoin:round; stroke-width:4; stroke-opacity:1; fill:none" points="1696.86,250.738 2279.61,250.738 2279.61,95.2176 1696.86,95.2176 1696.86,250.738 "/>
<polyline clip-path="url(#clip040)" style="stroke:#009af9; stroke-linecap:round; stroke-linejoin:round; stroke-width:4; stroke-opacity:1; fill:none" points="1721.24,147.058 1867.54,147.058 "/>
<path clip-path="url(#clip040)" d="M1907.1 142.393 Q1906.39 141.977 1905.53 141.791 Q1904.7 141.583 1903.68 141.583 Q1900.07 141.583 1898.12 143.944 Q1896.2 146.282 1896.2 150.68 L1896.2 164.338 L1891.92 164.338 L1891.92 138.412 L1896.2 138.412 L1896.2 142.44 Q1897.54 140.078 1899.7 138.944 Q1901.85 137.787 1904.93 137.787 Q1905.37 137.787 1905.9 137.856 Q1906.43 137.903 1907.08 138.018 L1907.1 142.393 Z" fill="#000000" fill-rule="nonzero" fill-opacity="1" /><path clip-path="url(#clip040)" d="M1923.35 151.305 Q1918.19 151.305 1916.2 152.486 Q1914.21 153.666 1914.21 156.514 Q1914.21 158.782 1915.69 160.125 Q1917.2 161.444 1919.77 161.444 Q1923.31 161.444 1925.44 158.944 Q1927.59 156.421 1927.59 152.254 L1927.59 151.305 L1923.35 151.305 M1931.85 149.546 L1931.85 164.338 L1927.59 164.338 L1927.59 160.402 Q1926.13 162.763 1923.96 163.898 Q1921.78 165.009 1918.63 165.009 Q1914.65 165.009 1912.29 162.787 Q1909.95 160.541 1909.95 156.791 Q1909.95 152.416 1912.87 150.194 Q1915.81 147.972 1921.62 147.972 L1927.59 147.972 L1927.59 147.555 Q1927.59 144.615 1925.65 143.018 Q1923.72 141.398 1920.23 141.398 Q1918.01 141.398 1915.9 141.93 Q1913.79 142.463 1911.85 143.527 L1911.85 139.592 Q1914.19 138.69 1916.39 138.25 Q1918.59 137.787 1920.67 137.787 Q1926.29 137.787 1929.07 140.703 Q1931.85 143.62 1931.85 149.546 Z" fill="#000000" fill-rule="nonzero" fill-opacity="1" /><path clip-path="url(#clip040)" d="M1938.15 138.412 L1942.41 138.412 L1947.73 158.643 L1953.03 138.412 L1958.05 138.412 L1963.38 158.643 L1968.68 138.412 L1972.94 138.412 L1966.16 164.338 L1961.13 164.338 L1955.55 143.088 L1949.95 164.338 L1944.93 164.338 L1938.15 138.412 Z" fill="#000000" fill-rule="nonzero" fill-opacity="1" /><path clip-path="url(#clip040)" d="M1994.65 129.778 L2001.62 129.778 L2010.44 153.296 L2019.3 129.778 L2026.27 129.778 L2026.27 164.338 L2021.71 164.338 L2021.71 133.99 L2012.8 157.694 L2008.1 157.694 L1999.19 133.99 L1999.19 164.338 L1994.65 164.338 L1994.65 129.778 Z" fill="#000000" fill-rule="nonzero" fill-opacity="1" /><path clip-path="url(#clip040)" d="M2061.43 132.44 L2061.43 137.37 Q2059.07 135.171 2056.39 134.083 Q2053.72 132.995 2050.71 132.995 Q2044.79 132.995 2041.64 136.629 Q2038.49 140.24 2038.49 147.092 Q2038.49 153.921 2041.64 157.555 Q2044.79 161.166 2050.71 161.166 Q2053.72 161.166 2056.39 160.078 Q2059.07 158.99 2061.43 156.791 L2061.43 161.676 Q2058.98 163.342 2056.22 164.176 Q2053.49 165.009 2050.44 165.009 Q2042.59 165.009 2038.08 160.217 Q2033.56 155.402 2033.56 147.092 Q2033.56 138.759 2038.08 133.967 Q2042.59 129.153 2050.44 129.153 Q2053.54 129.153 2056.27 129.986 Q2059.02 130.796 2061.43 132.44 Z" fill="#000000" fill-rule="nonzero" fill-opacity="1" /><path clip-path="url(#clip040)" d="M2105.71 150.31 L2105.71 152.393 L2086.13 152.393 Q2086.41 156.791 2088.77 159.106 Q2091.15 161.398 2095.39 161.398 Q2097.84 161.398 2100.14 160.796 Q2102.45 160.194 2104.72 158.99 L2104.72 163.018 Q2102.43 163.99 2100.02 164.5 Q2097.61 165.009 2095.14 165.009 Q2088.93 165.009 2085.3 161.398 Q2081.69 157.787 2081.69 151.629 Q2081.69 145.264 2085.11 141.537 Q2088.56 137.787 2094.4 137.787 Q2099.63 137.787 2102.66 141.166 Q2105.71 144.523 2105.71 150.31 M2101.46 149.06 Q2101.41 145.565 2099.49 143.481 Q2097.59 141.398 2094.44 141.398 Q2090.88 141.398 2088.72 143.412 Q2086.59 145.426 2086.27 149.083 L2101.46 149.06 Z" fill="#000000" fill-rule="nonzero" fill-opacity="1" /><path clip-path="url(#clip040)" d="M2129.77 142.347 L2129.77 128.319 L2134.02 128.319 L2134.02 164.338 L2129.77 164.338 L2129.77 160.449 Q2128.42 162.763 2126.36 163.898 Q2124.33 165.009 2121.46 165.009 Q2116.76 165.009 2113.79 161.259 Q2110.85 157.509 2110.85 151.398 Q2110.85 145.287 2113.79 141.537 Q2116.76 137.787 2121.46 137.787 Q2124.33 137.787 2126.36 138.921 Q2128.42 140.032 2129.77 142.347 M2115.25 151.398 Q2115.25 156.097 2117.17 158.782 Q2119.12 161.444 2122.5 161.444 Q2125.88 161.444 2127.82 158.782 Q2129.77 156.097 2129.77 151.398 Q2129.77 146.699 2127.82 144.037 Q2125.88 141.352 2122.5 141.352 Q2119.12 141.352 2117.17 144.037 Q2115.25 146.699 2115.25 151.398 Z" fill="#000000" fill-rule="nonzero" fill-opacity="1" /><path clip-path="url(#clip040)" d="M2164.97 150.31 L2164.97 152.393 L2145.39 152.393 Q2145.67 156.791 2148.03 159.106 Q2150.41 161.398 2154.65 161.398 Q2157.1 161.398 2159.39 160.796 Q2161.71 160.194 2163.98 158.99 L2163.98 163.018 Q2161.69 163.99 2159.28 164.5 Q2156.87 165.009 2154.39 165.009 Q2148.19 165.009 2144.56 161.398 Q2140.95 157.787 2140.95 151.629 Q2140.95 145.264 2144.37 141.537 Q2147.82 137.787 2153.65 137.787 Q2158.89 137.787 2161.92 141.166 Q2164.97 144.523 2164.97 150.31 M2160.71 149.06 Q2160.67 145.565 2158.75 143.481 Q2156.85 141.398 2153.7 141.398 Q2150.14 141.398 2147.98 143.412 Q2145.85 145.426 2145.53 149.083 L2160.71 149.06 Z" fill="#000000" fill-rule="nonzero" fill-opacity="1" /><path clip-path="url(#clip040)" d="M2176.08 160.449 L2176.08 174.199 L2171.8 174.199 L2171.8 138.412 L2176.08 138.412 L2176.08 142.347 Q2177.43 140.032 2179.46 138.921 Q2181.52 137.787 2184.37 137.787 Q2189.09 137.787 2192.03 141.537 Q2195 145.287 2195 151.398 Q2195 157.509 2192.03 161.259 Q2189.09 165.009 2184.37 165.009 Q2181.52 165.009 2179.46 163.898 Q2177.43 162.763 2176.08 160.449 M2190.58 151.398 Q2190.58 146.699 2188.63 144.037 Q2186.71 141.352 2183.33 141.352 Q2179.95 141.352 2178.01 144.037 Q2176.08 146.699 2176.08 151.398 Q2176.08 156.097 2178.01 158.782 Q2179.95 161.444 2183.33 161.444 Q2186.71 161.444 2188.63 158.782 Q2190.58 156.097 2190.58 151.398 Z" fill="#000000" fill-rule="nonzero" fill-opacity="1" /><polyline clip-path="url(#clip040)" style="stroke:#e26f46; stroke-linecap:round; stroke-linejoin:round; stroke-width:4; stroke-opacity:1; fill:none" points="1721.24,198.898 1867.54,198.898 "/>
<path clip-path="url(#clip040)" d="M1891.92 190.252 L1896.18 190.252 L1901.5 210.483 L1906.8 190.252 L1911.83 190.252 L1917.15 210.483 L1922.45 190.252 L1926.71 190.252 L1919.93 216.178 L1914.91 216.178 L1909.33 194.928 L1903.72 216.178 L1898.7 216.178 L1891.92 190.252 Z" fill="#000000" fill-rule="nonzero" fill-opacity="1" /><path clip-path="url(#clip040)" d="M1933.17 190.252 L1937.43 190.252 L1937.43 216.178 L1933.17 216.178 L1933.17 190.252 M1933.17 180.159 L1937.43 180.159 L1937.43 185.553 L1933.17 185.553 L1933.17 180.159 Z" fill="#000000" fill-rule="nonzero" fill-opacity="1" /><path clip-path="url(#clip040)" d="M1950.55 182.891 L1950.55 190.252 L1959.33 190.252 L1959.33 193.562 L1950.55 193.562 L1950.55 207.636 Q1950.55 210.807 1951.41 211.71 Q1952.29 212.613 1954.95 212.613 L1959.33 212.613 L1959.33 216.178 L1954.95 216.178 Q1950.02 216.178 1948.15 214.349 Q1946.27 212.497 1946.27 207.636 L1946.27 193.562 L1943.15 193.562 L1943.15 190.252 L1946.27 190.252 L1946.27 182.891 L1950.55 182.891 Z" fill="#000000" fill-rule="nonzero" fill-opacity="1" /><path clip-path="url(#clip040)" d="M1986.48 200.529 L1986.48 216.178 L1982.22 216.178 L1982.22 200.668 Q1982.22 196.988 1980.78 195.159 Q1979.35 193.33 1976.48 193.33 Q1973.03 193.33 1971.04 195.53 Q1969.05 197.729 1969.05 201.525 L1969.05 216.178 L1964.77 216.178 L1964.77 180.159 L1969.05 180.159 L1969.05 194.28 Q1970.58 191.942 1972.64 190.784 Q1974.72 189.627 1977.43 189.627 Q1981.9 189.627 1984.19 192.405 Q1986.48 195.159 1986.48 200.529 Z" fill="#000000" fill-rule="nonzero" fill-opacity="1" /><path clip-path="url(#clip040)" d="M2010.23 181.618 L2030.09 181.618 L2030.09 185.553 L2014.9 185.553 L2014.9 195.738 L2028.61 195.738 L2028.61 199.673 L2014.9 199.673 L2014.9 216.178 L2010.23 216.178 L2010.23 181.618 Z" fill="#000000" fill-rule="nonzero" fill-opacity="1" /><path clip-path="url(#clip040)" d="M2044.74 203.145 Q2039.58 203.145 2037.59 204.326 Q2035.6 205.506 2035.6 208.354 Q2035.6 210.622 2037.08 211.965 Q2038.59 213.284 2041.15 213.284 Q2044.7 213.284 2046.83 210.784 Q2048.98 208.261 2048.98 204.094 L2048.98 203.145 L2044.74 203.145 M2053.24 201.386 L2053.24 216.178 L2048.98 216.178 L2048.98 212.242 Q2047.52 214.603 2045.34 215.738 Q2043.17 216.849 2040.02 216.849 Q2036.04 216.849 2033.68 214.627 Q2031.34 212.381 2031.34 208.631 Q2031.34 204.256 2034.26 202.034 Q2037.2 199.812 2043.01 199.812 L2048.98 199.812 L2048.98 199.395 Q2048.98 196.455 2047.03 194.858 Q2045.11 193.238 2041.62 193.238 Q2039.4 193.238 2037.29 193.77 Q2035.18 194.303 2033.24 195.367 L2033.24 191.432 Q2035.58 190.53 2037.78 190.09 Q2039.97 189.627 2042.06 189.627 Q2047.68 189.627 2050.46 192.543 Q2053.24 195.46 2053.24 201.386 Z" fill="#000000" fill-rule="nonzero" fill-opacity="1" /><path clip-path="url(#clip040)" d="M2083.56 200.529 L2083.56 216.178 L2079.3 216.178 L2079.3 200.668 Q2079.3 196.988 2077.87 195.159 Q2076.43 193.33 2073.56 193.33 Q2070.11 193.33 2068.12 195.53 Q2066.13 197.729 2066.13 201.525 L2066.13 216.178 L2061.85 216.178 L2061.85 190.252 L2066.13 190.252 L2066.13 194.28 Q2067.66 191.942 2069.72 190.784 Q2071.8 189.627 2074.51 189.627 Q2078.98 189.627 2081.27 192.405 Q2083.56 195.159 2083.56 200.529 Z" fill="#000000" fill-rule="nonzero" fill-opacity="1" /><path clip-path="url(#clip040)" d="M2102.1 193.238 Q2098.68 193.238 2096.69 195.923 Q2094.7 198.585 2094.7 203.238 Q2094.7 207.891 2096.66 210.576 Q2098.65 213.238 2102.1 213.238 Q2105.51 213.238 2107.5 210.553 Q2109.49 207.867 2109.49 203.238 Q2109.49 198.631 2107.5 195.946 Q2105.51 193.238 2102.1 193.238 M2102.1 189.627 Q2107.66 189.627 2110.83 193.238 Q2114 196.849 2114 203.238 Q2114 209.604 2110.83 213.238 Q2107.66 216.849 2102.1 216.849 Q2096.52 216.849 2093.35 213.238 Q2090.21 209.604 2090.21 203.238 Q2090.21 196.849 2093.35 193.238 Q2096.52 189.627 2102.1 189.627 Z" fill="#000000" fill-rule="nonzero" fill-opacity="1" /><path clip-path="url(#clip040)" d="M2157.68 200.529 L2157.68 216.178 L2153.42 216.178 L2153.42 200.668 Q2153.42 196.988 2151.99 195.159 Q2150.55 193.33 2147.68 193.33 Q2144.23 193.33 2142.24 195.53 Q2140.25 197.729 2140.25 201.525 L2140.25 216.178 L2135.97 216.178 L2135.97 190.252 L2140.25 190.252 L2140.25 194.28 Q2141.78 191.942 2143.84 190.784 Q2145.92 189.627 2148.63 189.627 Q2153.1 189.627 2155.39 192.405 Q2157.68 195.159 2157.68 200.529 Z" fill="#000000" fill-rule="nonzero" fill-opacity="1" /><path clip-path="url(#clip040)" d="M2176.22 193.238 Q2172.8 193.238 2170.81 195.923 Q2168.82 198.585 2168.82 203.238 Q2168.82 207.891 2170.78 210.576 Q2172.77 213.238 2176.22 213.238 Q2179.63 213.238 2181.62 210.553 Q2183.61 207.867 2183.61 203.238 Q2183.61 198.631 2181.62 195.946 Q2179.63 193.238 2176.22 193.238 M2176.22 189.627 Q2181.78 189.627 2184.95 193.238 Q2188.12 196.849 2188.12 203.238 Q2188.12 209.604 2184.95 213.238 Q2181.78 216.849 2176.22 216.849 Q2170.64 216.849 2167.47 213.238 Q2164.33 209.604 2164.33 203.238 Q2164.33 196.849 2167.47 193.238 Q2170.64 189.627 2176.22 189.627 Z" fill="#000000" fill-rule="nonzero" fill-opacity="1" /><path clip-path="url(#clip040)" d="M2195.18 190.252 L2199.44 190.252 L2199.44 216.178 L2195.18 216.178 L2195.18 190.252 M2195.18 180.159 L2199.44 180.159 L2199.44 185.553 L2195.18 185.553 L2195.18 180.159 Z" fill="#000000" fill-rule="nonzero" fill-opacity="1" /><path clip-path="url(#clip040)" d="M2224.88 191.016 L2224.88 195.043 Q2223.07 194.117 2221.13 193.655 Q2219.19 193.192 2217.1 193.192 Q2213.93 193.192 2212.33 194.164 Q2210.76 195.136 2210.76 197.08 Q2210.76 198.562 2211.89 199.418 Q2213.03 200.252 2216.45 201.016 L2217.91 201.34 Q2222.45 202.312 2224.35 204.094 Q2226.27 205.854 2226.27 209.025 Q2226.27 212.636 2223.4 214.742 Q2220.55 216.849 2215.55 216.849 Q2213.47 216.849 2211.2 216.432 Q2208.95 216.039 2206.45 215.228 L2206.45 210.83 Q2208.82 212.057 2211.11 212.682 Q2213.4 213.284 2215.64 213.284 Q2218.65 213.284 2220.27 212.266 Q2221.89 211.224 2221.89 209.349 Q2221.89 207.613 2220.71 206.687 Q2219.56 205.761 2215.6 204.904 L2214.12 204.557 Q2210.16 203.724 2208.4 202.011 Q2206.64 200.275 2206.64 197.266 Q2206.64 193.608 2209.23 191.618 Q2211.83 189.627 2216.59 189.627 Q2218.95 189.627 2221.04 189.974 Q2223.12 190.321 2224.88 191.016 Z" fill="#000000" fill-rule="nonzero" fill-opacity="1" /><path clip-path="url(#clip040)" d="M2255.23 202.15 L2255.23 204.233 L2235.64 204.233 Q2235.92 208.631 2238.28 210.946 Q2240.67 213.238 2244.9 213.238 Q2247.36 213.238 2249.65 212.636 Q2251.96 212.034 2254.23 210.83 L2254.23 214.858 Q2251.94 215.83 2249.53 216.34 Q2247.13 216.849 2244.65 216.849 Q2238.45 216.849 2234.81 213.238 Q2231.2 209.627 2231.2 203.469 Q2231.2 197.104 2234.63 193.377 Q2238.07 189.627 2243.91 189.627 Q2249.14 189.627 2252.17 193.006 Q2255.23 196.363 2255.23 202.15 M2250.97 200.9 Q2250.92 197.405 2249 195.321 Q2247.1 193.238 2243.95 193.238 Q2240.39 193.238 2238.24 195.252 Q2236.11 197.266 2235.78 200.923 L2250.97 200.9 Z" fill="#000000" fill-rule="nonzero" fill-opacity="1" /></svg>
