<?xml version="1.0" encoding="utf-8"?>
<!-- Generator: Adobe Illustrator 21.1.0, SVG Export Plug-In . SVG Version: 6.00 Build 0)  -->
<svg version="1.1" id="Ebene_1" xmlns="http://www.w3.org/2000/svg" xmlns:xlink="http://www.w3.org/1999/xlink" x="0px" y="0px"
	 viewBox="0 0 817.4 511.2" style="enable-background:new 0 0 817.4 511.2;" xml:space="preserve">
<style type="text/css">
	.st0{fill:#CCCCCC;}
	.st1{fill:#07A9FF;}
</style>
<g id="hintergrund">
</g>
<g id="untertitel">
</g>
<g id="buchstaben_hinten">
</g>
<g id="buchstaben_vorn">
	<path class="st0" d="M443.8,288.5c-0.2,0.3-0.5,0.5-0.9,0.6c-1.1,0.2-2.5,0.2-4.3,0.3c-1.8,0-3.8,0.1-5.8,0.2
		c-2.1,0.1-4.2,0.1-6.3,0.1c-2.1,0-4,0-5.7,0c-8,0-14.1-1.6-18.1-4.9c-4.1-3.3-6.1-8.7-6.1-16.2v-43.8c0-7.6,2-13,6.1-16.2
		c4-3.3,10.1-4.9,18.1-4.9c1.7,0,3.5,0,5.6,0.1c2.1,0,4.1,0.1,6.2,0.1c2,0,4,0.1,5.8,0.2c1.8,0.1,3.3,0.2,4.5,0.3
		c0.4,0.1,0.7,0.3,0.9,0.6c0.2,0.3,0.3,0.6,0.3,1v5.7c0,0.9-0.4,1.4-1.2,1.4H421c-3,0-5.5,0.2-7.3,0.6c-1.8,0.4-3.2,1.1-4.2,2
		s-1.6,2.2-2,3.7c-0.3,1.5-0.5,3.3-0.5,5.5v15.8h34.9c0.6,0,1.1,0.2,1.6,0.7c0.5,0.4,0.7,1,0.7,1.6v4.3c0,0.6-0.2,1.1-0.7,1.6
		c-0.5,0.4-1,0.7-1.6,0.7H407v19.2c0,2.2,0.2,4,0.5,5.5s1,2.7,2,3.6c1,0.9,2.4,1.6,4.2,2.1c1.8,0.4,4.2,0.6,7.3,0.6h21.9
		c0.8,0,1.2,0.5,1.2,1.4v5.8C444.1,288,444,288.2,443.8,288.5z"/>
	<path class="st0" d="M255.6,288.1c-0.2,0.3-0.5,0.5-0.9,0.6c-1.5,0.2-4.2,0.5-8.2,0.7c-3.9,0.2-8.6,0.3-14,0.3c-3,0-6-0.2-8.9-0.7
		s-5.5-1.4-7.8-2.9s-4.1-3.6-5.5-6.4c-1.4-2.8-2-6.5-2-11.2v-61.7c0-0.6,0.2-1.1,0.7-1.6s1-0.7,1.6-0.7h5.8c0.6,0,1.1,0.2,1.6,0.7
		s0.7,1,0.7,1.6v61.8c0,2.2,0.2,4,0.5,5.5s1,2.7,2,3.6s2.4,1.6,4.2,2s4.2,0.6,7.3,0.6h21.9c0.8,0,1.2,0.5,1.2,1.4v5.3
		C255.9,287.5,255.8,287.9,255.6,288.1z"/>
	<g>
		<path class="st0" d="M593.9,254.5c0,6.1-0.8,11.3-2.4,15.8c-1.6,4.5-3.9,8.1-6.9,11s-6.6,5-10.8,6.4s-9,2.1-14.2,2.1
			c-2.2,0-4.3,0-6.4-0.1c-2.1-0.1-4.1-0.2-5.9-0.3c-1.9-0.1-3.5-0.2-4.9-0.3s-2.6-0.2-3.4-0.4c-1.6-0.2-2.4-1.2-2.4-2.8v-78
			c0-1.7,0.8-2.6,2.4-2.8c0.8-0.2,2-0.3,3.4-0.4c1.4-0.1,3.1-0.2,4.9-0.3c1.9-0.1,3.8-0.2,5.9-0.3c2.1-0.1,4.2-0.1,6.4-0.1
			c5.2,0,10,0.7,14.2,2c4.2,1.4,7.9,3.5,10.8,6.4c3,2.9,5.3,6.6,6.9,11c1.6,4.4,2.4,9.7,2.4,15.8V254.5z M583.5,239.1
			c0-5.2-0.6-9.4-1.9-12.9c-1.2-3.4-2.9-6.1-5.1-8.1c-2.2-2-4.7-3.4-7.6-4.3c-2.9-0.8-6.1-1.3-9.5-1.3c-2.6,0-4.9,0-6.9,0.1
			c-1.9,0-3.8,0.1-5.7,0.3v67.8c1.8,0.2,3.7,0.2,5.7,0.2s4.3,0,6.9,0c3.4,0,6.5-0.4,9.5-1.3c2.9-0.8,5.4-2.3,7.6-4.3
			c2.2-2,3.8-4.8,5.1-8.1c1.2-3.4,1.9-7.6,1.9-12.8V239.1z"/>
	</g>
	<path class="st1" d="M555.8,307.5c-49.1,0-117.2-33.7-150.3-50c-2.8-1.4-5.3-2.6-7.5-3.7c-75.4-42.5-144.8-37.7-212.2,14.4
		c-0.7,0.5-1.6,0.4-2.1-0.3c-0.5-0.7-0.4-1.6,0.3-2.1c32.3-25,64.4-38.9,98-42.6c37.7-4.2,77.2,5.2,117.5,27.9
		c2.1,1,4.7,2.3,7.5,3.7c41.5,20.5,138.8,68.6,181.7,41.9c13.7-8.5,20.6-24.3,20.6-46.9c0-0.8,0.7-1.5,1.5-1.5l0,0
		c0.8,0,1.5,0.7,1.5,1.5c0.1,8.9,2,53.2,32.6,53.2c0.8,0,1.5,0.7,1.5,1.5s-0.7,1.5-1.5,1.5c-12.9,0-22.6-6.9-28.8-20.4
		c-2.7-6-4.4-12.5-5.4-18.5c-2.9,14.7-9.7,25.5-20.5,32.1C580.8,305.1,569,307.5,555.8,307.5z"/>
	<path class="st0" d="M517.6,288c-0.6,0.6-1.4,1-2.3,1h-7c-1.8,0-3-0.6-3.6-1.8l-35.1-66.7c-0.2-0.2-0.3-0.3-0.3-0.3
		c-0.1,0-0.1,0.1-0.1,0.3v66.3c0,0.6-0.2,1.1-0.6,1.5s-0.9,0.6-1.5,0.6h-5.9c-0.6,0-1.1-0.1-1.5-0.2c-0.4-0.2-0.6-0.5-0.6-1.1v-79.8
		c0-0.9,0.3-1.7,1-2.3c0.6-0.6,1.4-0.9,2.3-0.9h6.2c1.6,0,2.6,0.2,3.2,0.5c0.5,0.3,1,0.9,1.5,1.8l34.9,66.3l0.2,0.3
		c0.1,0,0.1-0.1,0.1-0.3v-66.4c0-0.6,0.2-1.1,0.6-1.5s0.9-0.6,1.5-0.6h6c0.6,0,1.1,0.2,1.5,0.6c0.4,0.4,0.6,0.9,0.6,1.5v78.9
		C518.6,286.5,518.3,287.4,517.6,288z"/>
	<path class="st0" d="M376.8,288c-2.8,0.5-5.9,0.9-9.4,1.2c-3.4,0.3-7.9,0.5-13.2,0.5c-3.6,0-7.1-0.6-10.6-1.9
		c-3.5-1.2-6.7-3.3-9.4-6c-2.8-2.8-5-6.4-6.8-10.9c-1.7-4.5-2.6-10-2.6-16.5v-15.2c0-6.9,0.9-12.6,2.7-17.2c1.8-4.5,4.2-8.2,7-10.9
		c2.9-2.7,6.1-4.6,9.8-5.7c3.6-1.1,7.3-1.6,10.9-1.6c5.3,0,9.7,0.2,13.1,0.5s6.3,0.7,8.5,1.1c0.5,0.1,1,0.2,1.4,0.5
		c0.4,0.2,0.6,0.6,0.6,1.2v5.7c0,0.8-0.5,1.1-1.5,1.1h-0.5c-1.7-0.2-3.3-0.3-4.8-0.4c-1.6-0.1-3.2-0.2-4.8-0.2
		c-1.7,0-3.5-0.1-5.4-0.1s-4.1-0.1-6.5-0.1c-2.7,0-5.2,0.4-7.6,1.2s-4.6,2.2-6.4,4.2c-1.9,2-3.3,4.7-4.4,8.1
		c-1.1,3.4-1.6,7.6-1.6,12.6v15.2c0,4.7,0.5,8.7,1.5,12c1,3.3,2.3,6,4.1,8.1c1.7,2.1,3.8,3.6,6.1,4.6c2.3,0.9,4.8,1.4,7.4,1.4
		c3.5,0,6.4-0.1,8.7-0.2c2.3-0.2,4.2-0.3,5.6-0.5v-23.6c0-0.6,0.2-1.1,0.6-1.6s0.9-0.7,1.5-0.7h6.1c0.6,0,1.1,0.2,1.5,0.7
		s0.6,1,0.6,1.6v29.4C378.9,287,378.2,287.8,376.8,288z"/>
	<path class="st0" d="M311.7,288.5c-0.2,0.3-0.5,0.5-0.9,0.6c-1.1,0.2-2.5,0.2-4.3,0.3c-1.8,0-3.8,0.1-5.8,0.2
		c-2.1,0.1-4.2,0.1-6.3,0.1c-2.1,0-4,0-5.7,0c-8,0-14.1-1.6-18.1-4.9c-4.1-3.3-6.1-8.7-6.1-16.2v-43.8c0-7.6,2-13,6.1-16.2
		c4-3.3,10.1-4.9,18.1-4.9c1.7,0,3.5,0,5.6,0.1c2.1,0,4.1,0.1,6.2,0.1c2,0,4,0.1,5.8,0.2c1.8,0.1,3.3,0.2,4.5,0.3
		c0.4,0.1,0.7,0.3,0.9,0.6c0.2,0.3,0.3,0.6,0.3,1v5.7c0,0.9-0.4,1.4-1.2,1.4h-21.9c-3,0-5.5,0.2-7.3,0.6c-1.8,0.4-3.2,1.1-4.2,2
		s-1.6,2.2-2,3.7c-0.3,1.5-0.5,3.3-0.5,5.5v15.8h34.9c0.6,0,1.1,0.2,1.6,0.7c0.5,0.4,0.7,1,0.7,1.6v4.3c0,0.6-0.2,1.1-0.7,1.6
		c-0.5,0.4-1,0.7-1.6,0.7h-34.9v19.2c0,2.2,0.2,4,0.5,5.5s1,2.7,2,3.6c1,0.9,2.4,1.6,4.2,2.1c1.8,0.4,4.2,0.6,7.3,0.6h21.9
		c0.8,0,1.2,0.5,1.2,1.4v5.8C312,288,311.9,288.2,311.7,288.5z"/>
</g>
</svg>
