<?xml version="1.0" encoding="utf-8"?>
<svg xmlns="http://www.w3.org/2000/svg" xmlns:xlink="http://www.w3.org/1999/xlink" width="600" height="400" viewBox="0 0 2400 1600">
<defs>
  <clipPath id="clip930">
    <rect x="0" y="0" width="2400" height="1600"/>
  </clipPath>
</defs>
<path clip-path="url(#clip930)" d="M0 1600 L2400 1600 L2400 0 L0 0  Z" fill="#ffffff" fill-rule="evenodd" fill-opacity="1"/>
<defs>
  <clipPath id="clip931">
    <rect x="480" y="0" width="1681" height="1600"/>
  </clipPath>
</defs>
<path clip-path="url(#clip930)" d="M158.369 1486.45 L2352.76 1486.45 L2352.76 47.2441 L158.369 47.2441  Z" fill="#ffffff" fill-rule="evenodd" fill-opacity="1"/>
<defs>
  <clipPath id="clip932">
    <rect x="158" y="47" width="2195" height="1440"/>
  </clipPath>
</defs>
<polyline clip-path="url(#clip932)" style="stroke:#000000; stroke-linecap:round; stroke-linejoin:round; stroke-width:2; stroke-opacity:0.1; fill:none" points="373.821,1486.45 373.821,47.2441 "/>
<polyline clip-path="url(#clip932)" style="stroke:#000000; stroke-linecap:round; stroke-linejoin:round; stroke-width:2; stroke-opacity:0.1; fill:none" points="853.028,1486.45 853.028,47.2441 "/>
<polyline clip-path="url(#clip932)" style="stroke:#000000; stroke-linecap:round; stroke-linejoin:round; stroke-width:2; stroke-opacity:0.1; fill:none" points="1332.24,1486.45 1332.24,47.2441 "/>
<polyline clip-path="url(#clip932)" style="stroke:#000000; stroke-linecap:round; stroke-linejoin:round; stroke-width:2; stroke-opacity:0.1; fill:none" points="1811.44,1486.45 1811.44,47.2441 "/>
<polyline clip-path="url(#clip932)" style="stroke:#000000; stroke-linecap:round; stroke-linejoin:round; stroke-width:2; stroke-opacity:0.1; fill:none" points="2290.65,1486.45 2290.65,47.2441 "/>
<polyline clip-path="url(#clip930)" style="stroke:#000000; stroke-linecap:round; stroke-linejoin:round; stroke-width:4; stroke-opacity:1; fill:none" points="158.369,1486.45 2352.76,1486.45 "/>
<polyline clip-path="url(#clip930)" style="stroke:#000000; stroke-linecap:round; stroke-linejoin:round; stroke-width:4; stroke-opacity:1; fill:none" points="373.821,1486.45 373.821,1467.55 "/>
<polyline clip-path="url(#clip930)" style="stroke:#000000; stroke-linecap:round; stroke-linejoin:round; stroke-width:4; stroke-opacity:1; fill:none" points="853.028,1486.45 853.028,1467.55 "/>
<polyline clip-path="url(#clip930)" style="stroke:#000000; stroke-linecap:round; stroke-linejoin:round; stroke-width:4; stroke-opacity:1; fill:none" points="1332.24,1486.45 1332.24,1467.55 "/>
<polyline clip-path="url(#clip930)" style="stroke:#000000; stroke-linecap:round; stroke-linejoin:round; stroke-width:4; stroke-opacity:1; fill:none" points="1811.44,1486.45 1811.44,1467.55 "/>
<polyline clip-path="url(#clip930)" style="stroke:#000000; stroke-linecap:round; stroke-linejoin:round; stroke-width:4; stroke-opacity:1; fill:none" points="2290.65,1486.45 2290.65,1467.55 "/>
<path clip-path="url(#clip930)" d="M299.817 1544.91 L316.136 1544.91 L316.136 1548.85 L294.192 1548.85 L294.192 1544.91 Q296.854 1542.16 301.437 1537.53 Q306.043 1532.88 307.224 1531.53 Q309.469 1529.01 310.349 1527.27 Q311.252 1525.51 311.252 1523.82 Q311.252 1521.07 309.307 1519.33 Q307.386 1517.6 304.284 1517.6 Q302.085 1517.6 299.631 1518.36 Q297.201 1519.13 294.423 1520.68 L294.423 1515.95 Q297.247 1514.82 299.701 1514.24 Q302.154 1513.66 304.191 1513.66 Q309.562 1513.66 312.756 1516.35 Q315.951 1519.03 315.951 1523.52 Q315.951 1525.65 315.14 1527.57 Q314.353 1529.47 312.247 1532.07 Q311.668 1532.74 308.566 1535.95 Q305.465 1539.15 299.817 1544.91 Z" fill="#000000" fill-rule="nonzero" fill-opacity="1" /><path clip-path="url(#clip930)" d="M336.529 1529.7 Q333.381 1529.7 331.529 1531.86 Q329.701 1534.01 329.701 1537.76 Q329.701 1541.49 331.529 1543.66 Q333.381 1545.82 336.529 1545.82 Q339.677 1545.82 341.506 1543.66 Q343.358 1541.49 343.358 1537.76 Q343.358 1534.01 341.506 1531.86 Q339.677 1529.7 336.529 1529.7 M345.812 1515.05 L345.812 1519.31 Q344.052 1518.48 342.247 1518.04 Q340.464 1517.6 338.705 1517.6 Q334.076 1517.6 331.622 1520.72 Q329.191 1523.85 328.844 1530.17 Q330.21 1528.15 332.27 1527.09 Q334.33 1526 336.807 1526 Q342.015 1526 345.025 1529.17 Q348.057 1532.32 348.057 1537.76 Q348.057 1543.08 344.909 1546.3 Q341.761 1549.52 336.529 1549.52 Q330.534 1549.52 327.363 1544.94 Q324.191 1540.33 324.191 1531.6 Q324.191 1523.41 328.08 1518.55 Q331.969 1513.66 338.52 1513.66 Q340.279 1513.66 342.062 1514.01 Q343.867 1514.36 345.812 1515.05 Z" fill="#000000" fill-rule="nonzero" fill-opacity="1" /><path clip-path="url(#clip930)" d="M356.923 1544.91 L364.562 1544.91 L364.562 1518.55 L356.251 1520.21 L356.251 1515.95 L364.515 1514.29 L369.191 1514.29 L369.191 1544.91 L376.83 1544.91 L376.83 1548.85 L356.923 1548.85 L356.923 1544.91 Z" fill="#000000" fill-rule="nonzero" fill-opacity="1" /><path clip-path="url(#clip930)" d="M386.321 1514.29 L404.677 1514.29 L404.677 1518.22 L390.603 1518.22 L390.603 1526.7 Q391.622 1526.35 392.64 1526.19 Q393.659 1526 394.677 1526 Q400.464 1526 403.844 1529.17 Q407.223 1532.34 407.223 1537.76 Q407.223 1543.34 403.751 1546.44 Q400.279 1549.52 393.96 1549.52 Q391.784 1549.52 389.515 1549.15 Q387.27 1548.78 384.862 1548.04 L384.862 1543.34 Q386.946 1544.47 389.168 1545.03 Q391.39 1545.58 393.867 1545.58 Q397.872 1545.58 400.209 1543.48 Q402.547 1541.37 402.547 1537.76 Q402.547 1534.15 400.209 1532.04 Q397.872 1529.94 393.867 1529.94 Q391.992 1529.94 390.117 1530.35 Q388.265 1530.77 386.321 1531.65 L386.321 1514.29 Z" fill="#000000" fill-rule="nonzero" fill-opacity="1" /><path clip-path="url(#clip930)" d="M416.436 1542.97 L421.32 1542.97 L421.32 1548.85 L416.436 1548.85 L416.436 1542.97 Z" fill="#000000" fill-rule="nonzero" fill-opacity="1" /><path clip-path="url(#clip930)" d="M441.506 1517.37 Q437.894 1517.37 436.066 1520.93 Q434.26 1524.47 434.26 1531.6 Q434.26 1538.71 436.066 1542.27 Q437.894 1545.82 441.506 1545.82 Q445.14 1545.82 446.945 1542.27 Q448.774 1538.71 448.774 1531.6 Q448.774 1524.47 446.945 1520.93 Q445.14 1517.37 441.506 1517.37 M441.506 1513.66 Q447.316 1513.66 450.371 1518.27 Q453.45 1522.85 453.45 1531.6 Q453.45 1540.33 450.371 1544.94 Q447.316 1549.52 441.506 1549.52 Q435.695 1549.52 432.617 1544.94 Q429.561 1540.33 429.561 1531.6 Q429.561 1522.85 432.617 1518.27 Q435.695 1513.66 441.506 1513.66 Z" fill="#000000" fill-rule="nonzero" fill-opacity="1" /><path clip-path="url(#clip930)" d="M779.522 1544.91 L795.841 1544.91 L795.841 1548.85 L773.897 1548.85 L773.897 1544.91 Q776.559 1542.16 781.142 1537.53 Q785.748 1532.88 786.929 1531.53 Q789.174 1529.01 790.054 1527.27 Q790.957 1525.51 790.957 1523.82 Q790.957 1521.07 789.012 1519.33 Q787.091 1517.6 783.989 1517.6 Q781.79 1517.6 779.336 1518.36 Q776.906 1519.13 774.128 1520.68 L774.128 1515.95 Q776.952 1514.82 779.406 1514.24 Q781.86 1513.66 783.897 1513.66 Q789.267 1513.66 792.461 1516.35 Q795.656 1519.03 795.656 1523.52 Q795.656 1525.65 794.846 1527.57 Q794.059 1529.47 791.952 1532.07 Q791.373 1532.74 788.272 1535.95 Q785.17 1539.15 779.522 1544.91 Z" fill="#000000" fill-rule="nonzero" fill-opacity="1" /><path clip-path="url(#clip930)" d="M816.234 1529.7 Q813.086 1529.7 811.234 1531.86 Q809.406 1534.01 809.406 1537.76 Q809.406 1541.49 811.234 1543.66 Q813.086 1545.82 816.234 1545.82 Q819.383 1545.82 821.211 1543.66 Q823.063 1541.49 823.063 1537.76 Q823.063 1534.01 821.211 1531.86 Q819.383 1529.7 816.234 1529.7 M825.517 1515.05 L825.517 1519.31 Q823.758 1518.48 821.952 1518.04 Q820.17 1517.6 818.41 1517.6 Q813.781 1517.6 811.327 1520.72 Q808.896 1523.85 808.549 1530.17 Q809.915 1528.15 811.975 1527.09 Q814.035 1526 816.512 1526 Q821.721 1526 824.73 1529.17 Q827.762 1532.32 827.762 1537.76 Q827.762 1543.08 824.614 1546.3 Q821.466 1549.52 816.234 1549.52 Q810.239 1549.52 807.068 1544.94 Q803.897 1540.33 803.897 1531.6 Q803.897 1523.41 807.785 1518.55 Q811.674 1513.66 818.225 1513.66 Q819.984 1513.66 821.767 1514.01 Q823.572 1514.36 825.517 1515.05 Z" fill="#000000" fill-rule="nonzero" fill-opacity="1" /><path clip-path="url(#clip930)" d="M836.628 1544.91 L844.267 1544.91 L844.267 1518.55 L835.957 1520.21 L835.957 1515.95 L844.22 1514.29 L848.896 1514.29 L848.896 1544.91 L856.535 1544.91 L856.535 1548.85 L836.628 1548.85 L836.628 1544.91 Z" fill="#000000" fill-rule="nonzero" fill-opacity="1" /><path clip-path="url(#clip930)" d="M864.799 1514.29 L887.021 1514.29 L887.021 1516.28 L874.475 1548.85 L869.591 1548.85 L881.396 1518.22 L864.799 1518.22 L864.799 1514.29 Z" fill="#000000" fill-rule="nonzero" fill-opacity="1" /><path clip-path="url(#clip930)" d="M896.141 1542.97 L901.026 1542.97 L901.026 1548.85 L896.141 1548.85 L896.141 1542.97 Z" fill="#000000" fill-rule="nonzero" fill-opacity="1" /><path clip-path="url(#clip930)" d="M911.257 1514.29 L929.613 1514.29 L929.613 1518.22 L915.539 1518.22 L915.539 1526.7 Q916.558 1526.35 917.576 1526.19 Q918.595 1526 919.613 1526 Q925.401 1526 928.78 1529.17 Q932.16 1532.34 932.16 1537.76 Q932.16 1543.34 928.688 1546.44 Q925.215 1549.52 918.896 1549.52 Q916.72 1549.52 914.451 1549.15 Q912.206 1548.78 909.799 1548.04 L909.799 1543.34 Q911.882 1544.47 914.104 1545.03 Q916.326 1545.58 918.803 1545.58 Q922.808 1545.58 925.146 1543.48 Q927.484 1541.37 927.484 1537.76 Q927.484 1534.15 925.146 1532.04 Q922.808 1529.94 918.803 1529.94 Q916.928 1529.94 915.053 1530.35 Q913.201 1530.77 911.257 1531.65 L911.257 1514.29 Z" fill="#000000" fill-rule="nonzero" fill-opacity="1" /><path clip-path="url(#clip930)" d="M1258.23 1544.91 L1274.55 1544.91 L1274.55 1548.85 L1252.61 1548.85 L1252.61 1544.91 Q1255.27 1542.16 1259.85 1537.53 Q1264.46 1532.88 1265.64 1531.53 Q1267.88 1529.01 1268.76 1527.27 Q1269.67 1525.51 1269.67 1523.82 Q1269.67 1521.07 1267.72 1519.33 Q1265.8 1517.6 1262.7 1517.6 Q1260.5 1517.6 1258.05 1518.36 Q1255.62 1519.13 1252.84 1520.68 L1252.84 1515.95 Q1255.66 1514.82 1258.12 1514.24 Q1260.57 1513.66 1262.61 1513.66 Q1267.98 1513.66 1271.17 1516.35 Q1274.37 1519.03 1274.37 1523.52 Q1274.37 1525.65 1273.56 1527.57 Q1272.77 1529.47 1270.66 1532.07 Q1270.08 1532.74 1266.98 1535.95 Q1263.88 1539.15 1258.23 1544.91 Z" fill="#000000" fill-rule="nonzero" fill-opacity="1" /><path clip-path="url(#clip930)" d="M1294.94 1529.7 Q1291.8 1529.7 1289.94 1531.86 Q1288.12 1534.01 1288.12 1537.76 Q1288.12 1541.49 1289.94 1543.66 Q1291.8 1545.82 1294.94 1545.82 Q1298.09 1545.82 1299.92 1543.66 Q1301.77 1541.49 1301.77 1537.76 Q1301.77 1534.01 1299.92 1531.86 Q1298.09 1529.7 1294.94 1529.7 M1304.23 1515.05 L1304.23 1519.31 Q1302.47 1518.48 1300.66 1518.04 Q1298.88 1517.6 1297.12 1517.6 Q1292.49 1517.6 1290.04 1520.72 Q1287.61 1523.85 1287.26 1530.17 Q1288.62 1528.15 1290.68 1527.09 Q1292.75 1526 1295.22 1526 Q1300.43 1526 1303.44 1529.17 Q1306.47 1532.32 1306.47 1537.76 Q1306.47 1543.08 1303.32 1546.3 Q1300.18 1549.52 1294.94 1549.52 Q1288.95 1549.52 1285.78 1544.94 Q1282.61 1540.33 1282.61 1531.6 Q1282.61 1523.41 1286.5 1518.55 Q1290.38 1513.66 1296.93 1513.66 Q1298.69 1513.66 1300.48 1514.01 Q1302.28 1514.36 1304.23 1515.05 Z" fill="#000000" fill-rule="nonzero" fill-opacity="1" /><path clip-path="url(#clip930)" d="M1318.56 1544.91 L1334.87 1544.91 L1334.87 1548.85 L1312.93 1548.85 L1312.93 1544.91 Q1315.59 1542.16 1320.18 1537.53 Q1324.78 1532.88 1325.96 1531.53 Q1328.21 1529.01 1329.09 1527.27 Q1329.99 1525.51 1329.99 1523.82 Q1329.99 1521.07 1328.05 1519.33 Q1326.12 1517.6 1323.02 1517.6 Q1320.82 1517.6 1318.37 1518.36 Q1315.94 1519.13 1313.16 1520.68 L1313.16 1515.95 Q1315.99 1514.82 1318.44 1514.24 Q1320.89 1513.66 1322.93 1513.66 Q1328.3 1513.66 1331.49 1516.35 Q1334.69 1519.03 1334.69 1523.52 Q1334.69 1525.65 1333.88 1527.57 Q1333.09 1529.47 1330.99 1532.07 Q1330.41 1532.74 1327.31 1535.95 Q1324.2 1539.15 1318.56 1544.91 Z" fill="#000000" fill-rule="nonzero" fill-opacity="1" /><path clip-path="url(#clip930)" d="M1354.69 1517.37 Q1351.08 1517.37 1349.25 1520.93 Q1347.44 1524.47 1347.44 1531.6 Q1347.44 1538.71 1349.25 1542.27 Q1351.08 1545.82 1354.69 1545.82 Q1358.32 1545.82 1360.13 1542.27 Q1361.96 1538.71 1361.96 1531.6 Q1361.96 1524.47 1360.13 1520.93 Q1358.32 1517.37 1354.69 1517.37 M1354.69 1513.66 Q1360.5 1513.66 1363.55 1518.27 Q1366.63 1522.85 1366.63 1531.6 Q1366.63 1540.33 1363.55 1544.94 Q1360.5 1549.52 1354.69 1549.52 Q1348.88 1549.52 1345.8 1544.94 Q1342.74 1540.33 1342.74 1531.6 Q1342.74 1522.85 1345.8 1518.27 Q1348.88 1513.66 1354.69 1513.66 Z" fill="#000000" fill-rule="nonzero" fill-opacity="1" /><path clip-path="url(#clip930)" d="M1374.85 1542.97 L1379.74 1542.97 L1379.74 1548.85 L1374.85 1548.85 L1374.85 1542.97 Z" fill="#000000" fill-rule="nonzero" fill-opacity="1" /><path clip-path="url(#clip930)" d="M1399.92 1517.37 Q1396.31 1517.37 1394.48 1520.93 Q1392.68 1524.47 1392.68 1531.6 Q1392.68 1538.71 1394.48 1542.27 Q1396.31 1545.82 1399.92 1545.82 Q1403.55 1545.82 1405.36 1542.27 Q1407.19 1538.71 1407.19 1531.6 Q1407.19 1524.47 1405.36 1520.93 Q1403.55 1517.37 1399.92 1517.37 M1399.92 1513.66 Q1405.73 1513.66 1408.79 1518.27 Q1411.86 1522.85 1411.86 1531.6 Q1411.86 1540.33 1408.79 1544.94 Q1405.73 1549.52 1399.92 1549.52 Q1394.11 1549.52 1391.03 1544.94 Q1387.98 1540.33 1387.98 1531.6 Q1387.98 1522.85 1391.03 1518.27 Q1394.11 1513.66 1399.92 1513.66 Z" fill="#000000" fill-rule="nonzero" fill-opacity="1" /><path clip-path="url(#clip930)" d="M1737.94 1544.91 L1754.26 1544.91 L1754.26 1548.85 L1732.31 1548.85 L1732.31 1544.91 Q1734.97 1542.16 1739.56 1537.53 Q1744.16 1532.88 1745.34 1531.53 Q1747.59 1529.01 1748.47 1527.27 Q1749.37 1525.51 1749.37 1523.82 Q1749.37 1521.07 1747.43 1519.33 Q1745.51 1517.6 1742.4 1517.6 Q1740.21 1517.6 1737.75 1518.36 Q1735.32 1519.13 1732.54 1520.68 L1732.54 1515.95 Q1735.37 1514.82 1737.82 1514.24 Q1740.27 1513.66 1742.31 1513.66 Q1747.68 1513.66 1750.88 1516.35 Q1754.07 1519.03 1754.07 1523.52 Q1754.07 1525.65 1753.26 1527.57 Q1752.47 1529.47 1750.37 1532.07 Q1749.79 1532.74 1746.69 1535.95 Q1743.58 1539.15 1737.94 1544.91 Z" fill="#000000" fill-rule="nonzero" fill-opacity="1" /><path clip-path="url(#clip930)" d="M1774.65 1529.7 Q1771.5 1529.7 1769.65 1531.86 Q1767.82 1534.01 1767.82 1537.76 Q1767.82 1541.49 1769.65 1543.66 Q1771.5 1545.82 1774.65 1545.82 Q1777.8 1545.82 1779.63 1543.66 Q1781.48 1541.49 1781.48 1537.76 Q1781.48 1534.01 1779.63 1531.86 Q1777.8 1529.7 1774.65 1529.7 M1783.93 1515.05 L1783.93 1519.31 Q1782.17 1518.48 1780.37 1518.04 Q1778.58 1517.6 1776.83 1517.6 Q1772.2 1517.6 1769.74 1520.72 Q1767.31 1523.85 1766.96 1530.17 Q1768.33 1528.15 1770.39 1527.09 Q1772.45 1526 1774.93 1526 Q1780.14 1526 1783.14 1529.17 Q1786.18 1532.32 1786.18 1537.76 Q1786.18 1543.08 1783.03 1546.3 Q1779.88 1549.52 1774.65 1549.52 Q1768.65 1549.52 1765.48 1544.94 Q1762.31 1540.33 1762.31 1531.6 Q1762.31 1523.41 1766.2 1518.55 Q1770.09 1513.66 1776.64 1513.66 Q1778.4 1513.66 1780.18 1514.01 Q1781.99 1514.36 1783.93 1515.05 Z" fill="#000000" fill-rule="nonzero" fill-opacity="1" /><path clip-path="url(#clip930)" d="M1798.26 1544.91 L1814.58 1544.91 L1814.58 1548.85 L1792.64 1548.85 L1792.64 1544.91 Q1795.3 1542.16 1799.88 1537.53 Q1804.49 1532.88 1805.67 1531.53 Q1807.91 1529.01 1808.79 1527.27 Q1809.7 1525.51 1809.7 1523.82 Q1809.7 1521.07 1807.75 1519.33 Q1805.83 1517.6 1802.73 1517.6 Q1800.53 1517.6 1798.08 1518.36 Q1795.64 1519.13 1792.87 1520.68 L1792.87 1515.95 Q1795.69 1514.82 1798.14 1514.24 Q1800.6 1513.66 1802.64 1513.66 Q1808.01 1513.66 1811.2 1516.35 Q1814.39 1519.03 1814.39 1523.52 Q1814.39 1525.65 1813.58 1527.57 Q1812.8 1529.47 1810.69 1532.07 Q1810.11 1532.74 1807.01 1535.95 Q1803.91 1539.15 1798.26 1544.91 Z" fill="#000000" fill-rule="nonzero" fill-opacity="1" /><path clip-path="url(#clip930)" d="M1828.42 1544.91 L1844.74 1544.91 L1844.74 1548.85 L1822.8 1548.85 L1822.8 1544.91 Q1825.46 1542.16 1830.04 1537.53 Q1834.65 1532.88 1835.83 1531.53 Q1838.07 1529.01 1838.95 1527.27 Q1839.86 1525.51 1839.86 1523.82 Q1839.86 1521.07 1837.91 1519.33 Q1835.99 1517.6 1832.89 1517.6 Q1830.69 1517.6 1828.24 1518.36 Q1825.81 1519.13 1823.03 1520.68 L1823.03 1515.95 Q1825.85 1514.82 1828.31 1514.24 Q1830.76 1513.66 1832.8 1513.66 Q1838.17 1513.66 1841.36 1516.35 Q1844.56 1519.03 1844.56 1523.52 Q1844.56 1525.65 1843.75 1527.57 Q1842.96 1529.47 1840.85 1532.07 Q1840.27 1532.74 1837.17 1535.95 Q1834.07 1539.15 1828.42 1544.91 Z" fill="#000000" fill-rule="nonzero" fill-opacity="1" /><path clip-path="url(#clip930)" d="M1854.56 1542.97 L1859.44 1542.97 L1859.44 1548.85 L1854.56 1548.85 L1854.56 1542.97 Z" fill="#000000" fill-rule="nonzero" fill-opacity="1" /><path clip-path="url(#clip930)" d="M1869.67 1514.29 L1888.03 1514.29 L1888.03 1518.22 L1873.95 1518.22 L1873.95 1526.7 Q1874.97 1526.35 1875.99 1526.19 Q1877.01 1526 1878.03 1526 Q1883.82 1526 1887.2 1529.17 Q1890.57 1532.34 1890.57 1537.76 Q1890.57 1543.34 1887.1 1546.44 Q1883.63 1549.52 1877.31 1549.52 Q1875.13 1549.52 1872.87 1549.15 Q1870.62 1548.78 1868.21 1548.04 L1868.21 1543.34 Q1870.3 1544.47 1872.52 1545.03 Q1874.74 1545.58 1877.22 1545.58 Q1881.22 1545.58 1883.56 1543.48 Q1885.9 1541.37 1885.9 1537.76 Q1885.9 1534.15 1883.56 1532.04 Q1881.22 1529.94 1877.22 1529.94 Q1875.34 1529.94 1873.47 1530.35 Q1871.62 1530.77 1869.67 1531.65 L1869.67 1514.29 Z" fill="#000000" fill-rule="nonzero" fill-opacity="1" /><path clip-path="url(#clip930)" d="M2216.65 1544.91 L2232.97 1544.91 L2232.97 1548.85 L2211.02 1548.85 L2211.02 1544.91 Q2213.68 1542.16 2218.27 1537.53 Q2222.87 1532.88 2224.05 1531.53 Q2226.3 1529.01 2227.18 1527.27 Q2228.08 1525.51 2228.08 1523.82 Q2228.08 1521.07 2226.14 1519.33 Q2224.22 1517.6 2221.11 1517.6 Q2218.91 1517.6 2216.46 1518.36 Q2214.03 1519.13 2211.25 1520.68 L2211.25 1515.95 Q2214.08 1514.82 2216.53 1514.24 Q2218.98 1513.66 2221.02 1513.66 Q2226.39 1513.66 2229.59 1516.35 Q2232.78 1519.03 2232.78 1523.52 Q2232.78 1525.65 2231.97 1527.57 Q2231.18 1529.47 2229.08 1532.07 Q2228.5 1532.74 2225.4 1535.95 Q2222.29 1539.15 2216.65 1544.91 Z" fill="#000000" fill-rule="nonzero" fill-opacity="1" /><path clip-path="url(#clip930)" d="M2253.36 1529.7 Q2250.21 1529.7 2248.36 1531.86 Q2246.53 1534.01 2246.53 1537.76 Q2246.53 1541.49 2248.36 1543.66 Q2250.21 1545.82 2253.36 1545.82 Q2256.51 1545.82 2258.34 1543.66 Q2260.19 1541.49 2260.19 1537.76 Q2260.19 1534.01 2258.34 1531.86 Q2256.51 1529.7 2253.36 1529.7 M2262.64 1515.05 L2262.64 1519.31 Q2260.88 1518.48 2259.08 1518.04 Q2257.29 1517.6 2255.54 1517.6 Q2250.91 1517.6 2248.45 1520.72 Q2246.02 1523.85 2245.67 1530.17 Q2247.04 1528.15 2249.1 1527.09 Q2251.16 1526 2253.64 1526 Q2258.85 1526 2261.85 1529.17 Q2264.89 1532.32 2264.89 1537.76 Q2264.89 1543.08 2261.74 1546.3 Q2258.59 1549.52 2253.36 1549.52 Q2247.36 1549.52 2244.19 1544.94 Q2241.02 1540.33 2241.02 1531.6 Q2241.02 1523.41 2244.91 1518.55 Q2248.8 1513.66 2255.35 1513.66 Q2257.11 1513.66 2258.89 1514.01 Q2260.7 1514.36 2262.64 1515.05 Z" fill="#000000" fill-rule="nonzero" fill-opacity="1" /><path clip-path="url(#clip930)" d="M2276.97 1544.91 L2293.29 1544.91 L2293.29 1548.85 L2271.35 1548.85 L2271.35 1544.91 Q2274.01 1542.16 2278.59 1537.53 Q2283.2 1532.88 2284.38 1531.53 Q2286.62 1529.01 2287.5 1527.27 Q2288.41 1525.51 2288.41 1523.82 Q2288.41 1521.07 2286.46 1519.33 Q2284.54 1517.6 2281.44 1517.6 Q2279.24 1517.6 2276.78 1518.36 Q2274.35 1519.13 2271.58 1520.68 L2271.58 1515.95 Q2274.4 1514.82 2276.85 1514.24 Q2279.31 1513.66 2281.35 1513.66 Q2286.72 1513.66 2289.91 1516.35 Q2293.1 1519.03 2293.1 1523.52 Q2293.1 1525.65 2292.29 1527.57 Q2291.51 1529.47 2289.4 1532.07 Q2288.82 1532.74 2285.72 1535.95 Q2282.62 1539.15 2276.97 1544.91 Z" fill="#000000" fill-rule="nonzero" fill-opacity="1" /><path clip-path="url(#clip930)" d="M2303.15 1514.29 L2321.51 1514.29 L2321.51 1518.22 L2307.43 1518.22 L2307.43 1526.7 Q2308.45 1526.35 2309.47 1526.19 Q2310.49 1526 2311.51 1526 Q2317.29 1526 2320.67 1529.17 Q2324.05 1532.34 2324.05 1537.76 Q2324.05 1543.34 2320.58 1546.44 Q2317.11 1549.52 2310.79 1549.52 Q2308.61 1549.52 2306.34 1549.15 Q2304.1 1548.78 2301.69 1548.04 L2301.69 1543.34 Q2303.78 1544.47 2306 1545.03 Q2308.22 1545.58 2310.7 1545.58 Q2314.7 1545.58 2317.04 1543.48 Q2319.38 1541.37 2319.38 1537.76 Q2319.38 1534.15 2317.04 1532.04 Q2314.7 1529.94 2310.7 1529.94 Q2308.82 1529.94 2306.95 1530.35 Q2305.09 1530.77 2303.15 1531.65 L2303.15 1514.29 Z" fill="#000000" fill-rule="nonzero" fill-opacity="1" /><path clip-path="url(#clip930)" d="M2333.27 1542.97 L2338.15 1542.97 L2338.15 1548.85 L2333.27 1548.85 L2333.27 1542.97 Z" fill="#000000" fill-rule="nonzero" fill-opacity="1" /><path clip-path="url(#clip930)" d="M2358.34 1517.37 Q2354.72 1517.37 2352.9 1520.93 Q2351.09 1524.47 2351.09 1531.6 Q2351.09 1538.71 2352.9 1542.27 Q2354.72 1545.82 2358.34 1545.82 Q2361.97 1545.82 2363.78 1542.27 Q2365.6 1538.71 2365.6 1531.6 Q2365.6 1524.47 2363.78 1520.93 Q2361.97 1517.37 2358.34 1517.37 M2358.34 1513.66 Q2364.15 1513.66 2367.2 1518.27 Q2370.28 1522.85 2370.28 1531.6 Q2370.28 1540.33 2367.2 1544.94 Q2364.15 1549.52 2358.34 1549.52 Q2352.53 1549.52 2349.45 1544.94 Q2346.39 1540.33 2346.39 1531.6 Q2346.39 1522.85 2349.45 1518.27 Q2352.53 1513.66 2358.34 1513.66 Z" fill="#000000" fill-rule="nonzero" fill-opacity="1" /><polyline clip-path="url(#clip932)" style="stroke:#000000; stroke-linecap:round; stroke-linejoin:round; stroke-width:2; stroke-opacity:0.1; fill:none" points="158.369,1445.72 2352.76,1445.72 "/>
<polyline clip-path="url(#clip932)" style="stroke:#000000; stroke-linecap:round; stroke-linejoin:round; stroke-width:2; stroke-opacity:0.1; fill:none" points="158.369,905.189 2352.76,905.189 "/>
<polyline clip-path="url(#clip932)" style="stroke:#000000; stroke-linecap:round; stroke-linejoin:round; stroke-width:2; stroke-opacity:0.1; fill:none" points="158.369,364.663 2352.76,364.663 "/>
<polyline clip-path="url(#clip930)" style="stroke:#000000; stroke-linecap:round; stroke-linejoin:round; stroke-width:4; stroke-opacity:1; fill:none" points="158.369,1486.45 158.369,47.2441 "/>
<polyline clip-path="url(#clip930)" style="stroke:#000000; stroke-linecap:round; stroke-linejoin:round; stroke-width:4; stroke-opacity:1; fill:none" points="158.369,1445.72 177.267,1445.72 "/>
<polyline clip-path="url(#clip930)" style="stroke:#000000; stroke-linecap:round; stroke-linejoin:round; stroke-width:4; stroke-opacity:1; fill:none" points="158.369,905.189 177.267,905.189 "/>
<polyline clip-path="url(#clip930)" style="stroke:#000000; stroke-linecap:round; stroke-linejoin:round; stroke-width:4; stroke-opacity:1; fill:none" points="158.369,364.663 177.267,364.663 "/>
<path clip-path="url(#clip930)" d="M51.6634 1465.51 L59.3023 1465.51 L59.3023 1439.14 L50.9921 1440.81 L50.9921 1436.55 L59.256 1434.88 L63.9319 1434.88 L63.9319 1465.51 L71.5707 1465.51 L71.5707 1469.44 L51.6634 1469.44 L51.6634 1465.51 Z" fill="#000000" fill-rule="nonzero" fill-opacity="1" /><path clip-path="url(#clip930)" d="M91.0151 1437.96 Q87.404 1437.96 85.5753 1441.53 Q83.7697 1445.07 83.7697 1452.2 Q83.7697 1459.3 85.5753 1462.87 Q87.404 1466.41 91.0151 1466.41 Q94.6493 1466.41 96.4548 1462.87 Q98.2835 1459.3 98.2835 1452.2 Q98.2835 1445.07 96.4548 1441.53 Q94.6493 1437.96 91.0151 1437.96 M91.0151 1434.26 Q96.8252 1434.26 99.8808 1438.86 Q102.959 1443.45 102.959 1452.2 Q102.959 1460.92 99.8808 1465.53 Q96.8252 1470.11 91.0151 1470.11 Q85.2049 1470.11 82.1262 1465.53 Q79.0707 1460.92 79.0707 1452.2 Q79.0707 1443.45 82.1262 1438.86 Q85.2049 1434.26 91.0151 1434.26 Z" fill="#000000" fill-rule="nonzero" fill-opacity="1" /><path clip-path="url(#clip930)" d="M112.664 1416.45 Q109.73 1416.45 108.244 1419.35 Q106.777 1422.23 106.777 1428.02 Q106.777 1433.8 108.244 1436.69 Q109.73 1439.57 112.664 1439.57 Q115.617 1439.57 117.084 1436.69 Q118.57 1433.8 118.57 1428.02 Q118.57 1422.23 117.084 1419.35 Q115.617 1416.45 112.664 1416.45 M112.664 1413.45 Q117.385 1413.45 119.868 1417.19 Q122.369 1420.91 122.369 1428.02 Q122.369 1435.11 119.868 1438.85 Q117.385 1442.58 112.664 1442.58 Q107.943 1442.58 105.442 1438.85 Q102.959 1435.11 102.959 1428.02 Q102.959 1420.91 105.442 1417.19 Q107.943 1413.45 112.664 1413.45 Z" fill="#000000" fill-rule="nonzero" fill-opacity="1" /><path clip-path="url(#clip930)" d="M54.3529 924.982 L61.9918 924.982 L61.9918 898.616 L53.6816 900.283 L53.6816 896.023 L61.9455 894.357 L66.6214 894.357 L66.6214 924.982 L74.2602 924.982 L74.2602 928.917 L54.3529 928.917 L54.3529 924.982 Z" fill="#000000" fill-rule="nonzero" fill-opacity="1" /><path clip-path="url(#clip930)" d="M93.7046 897.436 Q90.0935 897.436 88.2648 901 Q86.4592 904.542 86.4592 911.672 Q86.4592 918.778 88.2648 922.343 Q90.0935 925.884 93.7046 925.884 Q97.3388 925.884 99.1444 922.343 Q100.973 918.778 100.973 911.672 Q100.973 904.542 99.1444 901 Q97.3388 897.436 93.7046 897.436 M93.7046 893.732 Q99.5147 893.732 102.57 898.338 Q105.649 902.922 105.649 911.672 Q105.649 920.398 102.57 925.005 Q99.5147 929.588 93.7046 929.588 Q87.8944 929.588 84.8157 925.005 Q81.7602 920.398 81.7602 911.672 Q81.7602 902.922 84.8157 898.338 Q87.8944 893.732 93.7046 893.732 Z" fill="#000000" fill-rule="nonzero" fill-opacity="1" /><path clip-path="url(#clip930)" d="M106.194 898.309 L112.401 898.309 L112.401 876.887 L105.649 878.241 L105.649 874.781 L112.363 873.426 L116.162 873.426 L116.162 898.309 L122.369 898.309 L122.369 901.506 L106.194 901.506 L106.194 898.309 Z" fill="#000000" fill-rule="nonzero" fill-opacity="1" /><path clip-path="url(#clip930)" d="M53.2433 384.455 L60.8821 384.455 L60.8821 358.09 L52.572 359.756 L52.572 355.497 L60.8358 353.83 L65.5117 353.83 L65.5117 384.455 L73.1506 384.455 L73.1506 388.39 L53.2433 388.39 L53.2433 384.455 Z" fill="#000000" fill-rule="nonzero" fill-opacity="1" /><path clip-path="url(#clip930)" d="M92.5949 356.909 Q88.9838 356.909 87.1551 360.474 Q85.3496 364.016 85.3496 371.145 Q85.3496 378.252 87.1551 381.816 Q88.9838 385.358 92.5949 385.358 Q96.2292 385.358 98.0347 381.816 Q99.8634 378.252 99.8634 371.145 Q99.8634 364.016 98.0347 360.474 Q96.2292 356.909 92.5949 356.909 M92.5949 353.205 Q98.4051 353.205 101.461 357.812 Q104.539 362.395 104.539 371.145 Q104.539 379.872 101.461 384.478 Q98.4051 389.062 92.5949 389.062 Q86.7848 389.062 83.7061 384.478 Q80.6505 379.872 80.6505 371.145 Q80.6505 362.395 83.7061 357.812 Q86.7848 353.205 92.5949 353.205 Z" fill="#000000" fill-rule="nonzero" fill-opacity="1" /><path clip-path="url(#clip930)" d="M109.11 357.783 L122.369 357.783 L122.369 360.98 L104.539 360.98 L104.539 357.783 Q106.702 355.545 110.426 351.783 Q114.169 348.003 115.128 346.912 Q116.952 344.862 117.667 343.451 Q118.401 342.022 118.401 340.649 Q118.401 338.411 116.821 337 Q115.26 335.589 112.739 335.589 Q110.953 335.589 108.959 336.21 Q106.984 336.831 104.727 338.091 L104.727 334.254 Q107.022 333.333 109.016 332.862 Q111.009 332.392 112.664 332.392 Q117.028 332.392 119.623 334.574 Q122.219 336.756 122.219 340.404 Q122.219 342.135 121.56 343.696 Q120.921 345.238 119.209 347.344 Q118.739 347.89 116.219 350.504 Q113.699 353.1 109.11 357.783 Z" fill="#000000" fill-rule="nonzero" fill-opacity="1" /><polyline clip-path="url(#clip932)" style="stroke:#009af9; stroke-linecap:round; stroke-linejoin:round; stroke-width:4; stroke-opacity:1; fill:none" points="220.474,1445.72 220.474,1445.72 239.643,1445.72 "/>
<polyline clip-path="url(#clip932)" style="stroke:#009af9; stroke-linecap:round; stroke-linejoin:round; stroke-width:4; stroke-opacity:1; fill:none" points="258.811,1445.72 258.811,905.189 277.979,905.189 277.979,87.9763 297.148,87.9763 297.148,1445.72 "/>
<path clip-path="url(#clip930)" d="M2007.74 198.898 L2279.61 198.898 L2279.61 95.2176 L2007.74 95.2176  Z" fill="#ffffff" fill-rule="evenodd" fill-opacity="1"/>
<polyline clip-path="url(#clip930)" style="stroke:#000000; stroke-linecap:round; stroke-linejoin:round; stroke-width:4; stroke-opacity:1; fill:none" points="2007.74,198.898 2279.61,198.898 2279.61,95.2176 2007.74,95.2176 2007.74,198.898 "/>
<polyline clip-path="url(#clip930)" style="stroke:#009af9; stroke-linecap:round; stroke-linejoin:round; stroke-width:4; stroke-opacity:1; fill:none" points="2032.12,147.058 2178.42,147.058 "/>
<path clip-path="url(#clip930)" d="M2216.64 166.745 Q2214.83 171.375 2213.12 172.787 Q2211.41 174.199 2208.54 174.199 L2205.14 174.199 L2205.14 170.634 L2207.64 170.634 Q2209.39 170.634 2210.37 169.8 Q2211.34 168.967 2212.52 165.865 L2213.28 163.921 L2202.8 138.412 L2207.31 138.412 L2215.41 158.689 L2223.51 138.412 L2228.03 138.412 L2216.64 166.745 Z" fill="#000000" fill-rule="nonzero" fill-opacity="1" /><path clip-path="url(#clip930)" d="M2235.32 160.402 L2242.96 160.402 L2242.96 134.037 L2234.65 135.703 L2234.65 131.444 L2242.91 129.778 L2247.59 129.778 L2247.59 160.402 L2255.23 160.402 L2255.23 164.338 L2235.32 164.338 L2235.32 160.402 Z" fill="#000000" fill-rule="nonzero" fill-opacity="1" /></svg>
